<svg version="1.1" id="Layer_1" xmlns="http://www.w3.org/2000/svg" xmlns:xlink="http://www.w3.org/1999/xlink" x="0px" y="0px"
	 width="100%" viewBox="0 0 1238 492" enable-background="new 0 0 1238 492" xml:space="preserve">
<path fill="#010101" opacity="1.000000" stroke="none" 
	d="
M899.000000,493.000000 
	C599.333374,493.000000 300.166748,493.000000 1.000080,493.000000 
	C1.000054,329.000061 1.000054,165.000107 1.000027,1.000124 
	C413.666534,1.000083 826.333069,1.000083 1238.999756,1.000041 
	C1238.999756,164.999878 1238.999756,328.999756 1238.999878,492.999817 
	C1125.833374,493.000000 1012.666687,493.000000 899.000000,493.000000 
M1167.517090,404.829987 
	C1167.918457,404.159241 1168.319824,403.488495 1168.801147,402.789581 
	C1168.801147,402.789581 1168.808960,402.705078 1169.482910,402.671295 
	C1171.205811,401.004303 1173.152832,399.509827 1174.598877,397.629883 
	C1176.764893,394.813995 1178.578979,391.727356 1180.755981,388.362213 
	C1180.755981,388.362213 1180.979614,387.974365 1181.685059,387.950470 
	C1183.078735,385.599304 1184.472412,383.248138 1185.953125,380.955994 
	C1185.953125,380.955994 1185.898926,380.865845 1186.595337,380.860931 
	C1187.990356,378.521118 1189.385376,376.181274 1190.846191,373.849579 
	C1190.846191,373.849579 1190.851807,373.783539 1191.552734,373.814911 
	C1193.669434,370.586975 1196.114746,367.524811 1197.841675,364.100311 
	C1203.286865,353.301636 1208.739258,342.489258 1213.621948,331.431854 
	C1215.943115,326.175201 1216.979858,320.351288 1218.681641,314.188599 
	C1218.691772,313.787811 1218.701904,313.387054 1219.228638,312.480530 
	C1220.663574,306.242462 1222.098511,300.004395 1223.599854,293.070831 
	C1223.627319,292.372711 1223.654663,291.674591 1224.323486,290.557678 
	C1224.828369,289.182190 1225.565552,287.844574 1225.796997,286.424500 
	C1226.724731,280.732239 1228.122314,275.024078 1228.210327,269.304291 
	C1228.504639,250.175659 1230.983276,230.922089 1225.828125,211.304443 
	C1225.777832,210.595261 1225.727417,209.886078 1225.994873,208.340942 
	C1225.206909,205.237595 1224.418823,202.134247 1223.638306,198.424881 
	C1223.610718,198.021973 1223.583252,197.619080 1223.886475,196.374695 
	C1222.876221,191.154724 1221.943726,185.917419 1220.788208,180.729752 
	C1220.564941,179.727386 1219.470581,178.919037 1218.750488,177.315445 
	C1218.701538,176.611282 1218.652588,175.907120 1218.882812,174.430756 
	C1218.204224,172.471375 1217.529541,170.510712 1216.846436,168.552887 
	C1214.877197,162.907639 1213.419922,157.013092 1210.823608,151.672424 
	C1205.820679,141.380875 1200.623535,131.126251 1194.646606,121.384171 
	C1190.063965,113.914673 1184.160034,107.255829 1178.518677,99.856285 
	C1178.313843,99.593208 1178.109009,99.330132 1178.022095,98.398796 
	C1177.343872,97.937248 1176.665527,97.475700 1176.000000,97.000000 
	C1176.000000,97.000000 1175.986084,97.012589 1176.051392,96.285522 
	C1170.566650,90.208656 1165.338379,83.871178 1159.514160,78.139206 
	C1155.036987,73.732994 1149.809692,70.089149 1144.979004,66.021446 
	C1144.979004,66.021446 1144.893066,66.083206 1144.885742,65.411385 
	C1144.216064,64.998695 1143.546265,64.586014 1142.881104,64.102943 
	C1142.881104,64.102943 1142.817871,64.134003 1142.711548,63.467743 
	C1135.726440,58.093491 1128.935791,52.436203 1121.682129,47.452843 
	C1117.435669,44.535534 1112.450684,42.693092 1107.356934,40.223450 
	C1107.356934,40.223450 1106.922363,40.061264 1106.860474,39.363876 
	C1097.494873,34.753609 1088.234619,29.909941 1078.725464,25.617794 
	C1072.713379,22.904186 1066.401001,20.782242 1060.086792,18.838228 
	C1056.113159,17.614807 1051.887207,17.211107 1047.079102,16.363621 
	C1046.379883,16.344355 1045.680664,16.325089 1044.560303,15.702700 
	C1040.937622,14.833269 1037.354614,13.700870 1033.684326,13.145992 
	C1024.413086,11.744342 1015.102478,10.602490 1004.917542,9.293634 
	C1001.607666,9.275047 998.297852,9.256460 994.312012,8.800360 
	C984.846985,8.302488 975.386719,7.538247 965.915833,7.369873 
	C952.096497,7.124192 938.269653,7.306898 924.445984,7.306713 
	C892.634949,7.306289 860.823792,7.349387 829.012939,7.276615 
	C820.296021,7.256674 820.304932,7.097245 820.304993,15.747777 
	C820.307068,169.140259 820.306885,322.532715 820.306885,475.925201 
	C820.306885,477.590698 819.940674,479.372314 820.424072,480.882507 
	C820.769104,481.960266 822.253174,482.673401 824.134766,483.594025 
	C876.016296,483.575470 927.897766,483.556885 980.687988,483.887268 
	C992.528137,483.160370 1004.383118,482.608154 1016.199524,481.602448 
	C1019.847290,481.291962 1023.389954,479.745544 1027.746094,478.763153 
	C1028.764893,478.713989 1029.783813,478.664825 1031.641846,478.896851 
	C1036.634766,478.116882 1041.730591,477.723083 1046.586914,476.429810 
	C1050.210083,475.464874 1053.523926,473.337463 1057.582153,471.673553 
	C1057.987061,471.648193 1058.391968,471.622864 1059.594238,471.880463 
	C1068.239258,468.770233 1077.136963,466.214264 1085.468628,462.416565 
	C1097.213867,457.062866 1108.596680,450.895966 1120.005737,444.834625 
	C1122.859375,443.318604 1125.220703,440.876404 1127.876465,438.869965 
	C1127.876465,438.869965 1127.860962,438.802948 1128.600830,438.808929 
	C1130.703491,437.181427 1132.806030,435.553894 1134.990112,433.983826 
	C1134.990112,433.983826 1134.926147,433.907135 1135.633911,433.878387 
	C1141.060059,429.228546 1146.486206,424.578674 1151.996826,419.979614 
	C1151.996826,419.979614 1151.926147,419.910095 1152.633667,419.883057 
	C1156.377441,415.888306 1160.121094,411.893555 1163.958130,407.936676 
	C1163.958130,407.936676 1163.892822,407.860077 1164.568604,407.795654 
	C1165.304565,406.810211 1166.040649,405.824768 1166.841919,404.846558 
	C1166.841919,404.846558 1166.853394,404.781952 1167.517090,404.829987 
M748.950989,468.024048 
	C748.950989,468.024048 748.867859,468.105164 748.828430,467.391602 
	C747.196594,465.288116 745.564758,463.184601 743.916748,461.011414 
	C743.916748,461.011414 743.897156,461.080383 743.865295,460.358124 
	C739.892456,454.927216 735.919556,449.496307 731.993896,444.000488 
	C731.993896,444.000488 731.933777,444.054230 731.949524,443.330505 
	C730.296143,441.224396 728.642700,439.118256 727.000000,437.000000 
	C727.000000,437.000000 726.987793,437.010590 727.000610,436.281616 
	C726.827881,435.642639 726.815552,434.891541 726.458984,434.381012 
	C716.158264,419.635345 705.859985,404.887634 695.461426,390.211060 
	C693.468994,387.398926 691.060120,384.881805 688.839966,382.151489 
	C688.839966,382.151489 688.763062,382.157654 688.743652,381.436218 
	C684.779053,376.030304 680.814514,370.624420 676.849121,365.143677 
	C676.849121,365.143677 676.774597,365.151184 676.783020,364.428070 
	C675.154419,362.330750 673.525879,360.233429 671.946899,358.055664 
	C671.946899,358.055664 671.863098,358.099304 671.880371,357.376434 
	C670.240479,355.267883 668.600525,353.159363 666.779114,350.622589 
	C666.779114,350.622589 666.577148,350.203522 666.761108,349.557465 
	C666.132751,349.094543 665.504333,348.631592 664.905701,348.092041 
	C664.905701,348.092041 664.828979,348.121552 664.882568,347.392883 
	C663.222717,345.304321 661.562866,343.215790 659.958008,341.046143 
	C659.958008,341.046143 659.872314,341.093658 659.904175,340.363464 
	C658.254822,338.261688 656.605408,336.159882 654.763977,333.630951 
	C654.763977,333.630951 654.586060,333.197723 654.786560,332.496796 
	C643.240967,315.802887 631.695312,299.109009 619.209229,281.055206 
	C616.476501,285.793823 614.352173,289.477417 612.150940,293.146423 
	C612.150940,293.146423 612.153015,293.224670 611.444824,293.164612 
	C608.740662,296.774506 606.036438,300.384369 602.976868,304.602753 
	C600.413391,308.803131 597.849915,313.003479 595.208130,317.200928 
	C595.208130,317.200928 595.183167,317.275116 594.526306,317.160553 
	C594.022644,318.111389 593.518982,319.062225 592.498352,320.250885 
	C592.077209,320.840149 591.656128,321.429413 590.504761,322.233490 
	C588.150208,324.376862 587.793762,326.332703 591.240295,328.360687 
	C591.240295,328.360687 591.446472,328.767487 591.252380,329.414642 
	C591.880798,329.880768 592.509277,330.346924 593.123657,330.882965 
	C593.123657,330.882965 593.191895,330.862244 593.169739,331.593567 
	C594.782288,333.726044 596.394836,335.858521 598.243835,338.369934 
	C598.243835,338.369934 598.468872,338.755646 598.230652,339.456146 
	C601.517700,343.932404 604.804749,348.408691 608.249573,353.335876 
	C608.249573,353.335876 608.394348,353.791199 608.144897,354.481018 
	C611.168701,358.544830 614.192505,362.608643 617.239075,366.764069 
	C617.239075,366.764069 617.327698,366.796722 617.241455,367.521301 
	C618.863464,369.633698 620.485474,371.746094 622.339539,374.295227 
	C622.339539,374.295227 622.559204,374.738342 622.284790,375.401886 
	C623.851379,377.273834 625.417969,379.145782 627.178406,381.405914 
	C627.178406,381.405914 627.352539,381.803284 627.151245,382.515045 
	C628.499817,384.244324 629.848328,385.973602 631.545654,388.076111 
	C631.753113,388.345947 631.960510,388.615784 632.038025,389.611511 
	C633.394409,391.361633 634.750854,393.111755 636.052734,394.956818 
	C636.052734,394.956818 636.141174,394.892273 636.162231,395.618042 
	C639.498962,400.333984 642.835693,405.049927 646.164062,409.829132 
	C646.164062,409.829132 646.224426,409.849854 646.121765,410.581299 
	C647.770569,412.692719 649.419312,414.804138 651.242554,417.349365 
	C651.242554,417.349365 651.402283,417.788818 651.203003,418.436584 
	C651.835571,418.917389 652.468079,419.398193 653.017090,419.960358 
	C653.017090,419.960358 653.120667,419.906860 652.988953,420.643402 
	C655.200012,424.106049 657.316345,427.634338 659.654297,431.009094 
	C661.313965,433.404633 663.272766,435.592896 665.303040,438.313324 
	C665.303040,438.313324 665.498779,438.757233 665.301941,439.406067 
	C665.910217,439.881622 666.518494,440.357178 667.090698,440.920380 
	C667.090698,440.920380 667.172058,440.871735 667.141602,441.605652 
	C668.870300,444.538940 670.395203,447.618805 672.374756,450.371674 
	C675.454895,454.654785 678.844055,458.715668 682.262146,463.325806 
	C682.262146,463.325806 682.412476,463.784088 682.166199,464.480103 
	C685.186279,468.536011 688.206299,472.591949 691.261414,476.746918 
	C691.261414,476.746918 691.360291,476.782471 691.280640,477.514130 
	C692.940002,479.508484 694.599304,481.502808 697.158447,483.570526 
	C716.696411,483.561462 736.234436,483.552399 756.444397,483.838348 
	C757.472961,483.253357 758.501465,482.668365 759.529968,482.083344 
	C758.329956,480.750153 757.129944,479.416962 755.988281,478.003662 
	C755.988281,478.003662 755.915039,478.070801 755.907654,477.379578 
	C754.906799,476.291504 753.905884,475.203400 752.773438,473.659973 
	C752.773438,473.659973 752.591980,473.222076 752.815002,472.537659 
	C751.509705,471.067749 750.204468,469.597870 748.950989,468.024048 
M404.120697,72.892220 
	C404.120697,72.892220 404.204651,72.860764 404.182129,73.575836 
	C405.837952,75.641273 407.493774,77.706703 409.148010,79.861229 
	C409.148010,79.861229 409.236206,79.848549 409.240906,80.568291 
	C410.867828,82.654381 412.494751,84.740471 414.094086,86.904984 
	C414.094086,86.904984 414.174103,86.882462 414.164520,87.609665 
	C416.508453,90.632530 418.852417,93.655396 421.209015,96.796143 
	C421.209015,96.796143 421.326813,96.809555 421.273163,97.529442 
	C422.902985,99.604408 424.532806,101.679375 426.147644,103.845520 
	C426.147644,103.845520 426.239899,103.850723 426.189087,104.576897 
	C431.289337,111.996574 436.276978,119.497360 441.538086,126.801147 
	C444.109528,130.370895 447.190063,133.573898 450.261597,137.369919 
	C450.261597,137.369919 450.478455,137.799271 450.290253,138.492554 
	C452.579681,141.246567 454.869110,144.000580 457.155182,146.848541 
	C457.155182,146.848541 457.249146,146.845352 457.224060,147.584549 
	C458.841522,149.682632 460.458984,151.780716 462.293579,154.323486 
	C462.390503,154.649689 462.567535,154.924194 462.906891,155.865585 
	C465.012024,158.448776 467.117126,161.031967 469.240936,163.752411 
	C469.240936,163.752411 469.370758,163.800751 469.307129,164.445297 
	C469.919922,164.887817 470.532684,165.330353 471.156311,165.862366 
	C471.156311,165.862366 471.244263,165.842560 471.317780,166.556763 
	C472.903076,168.671036 474.488373,170.785309 476.033875,172.981308 
	C476.033875,172.981308 476.103516,172.922882 476.190918,173.633087 
	C478.528473,176.638077 480.866058,179.643082 483.246399,182.774887 
	C483.246399,182.774887 483.379700,182.786850 483.374176,183.441116 
	C484.289124,184.242172 485.204041,185.043243 486.052032,185.912323 
	C486.052032,185.912323 486.146576,185.899338 486.000031,186.632690 
	C486.308411,187.384872 486.474304,188.243973 486.946472,188.873260 
	C494.276062,198.641327 501.610077,208.406555 509.021606,218.112473 
	C512.303711,222.410645 515.761292,226.574875 519.116150,230.886047 
	C519.116150,230.886047 519.202332,230.863083 519.154297,231.575729 
	C525.776733,240.604187 532.354126,249.666397 539.070251,258.624664 
	C540.074158,259.963745 541.728943,260.814911 543.023010,261.976166 
	C543.023010,261.976166 543.109131,261.919067 543.048828,262.659851 
	C544.551575,269.385498 550.874207,270.418243 555.656250,273.792908 
	C558.482117,268.920105 561.109253,264.390015 564.063354,259.436157 
	C564.327454,259.196808 564.591553,258.957458 565.540894,258.760742 
	C568.966064,253.472107 572.391296,248.183487 576.187073,242.557220 
	C576.435120,242.333267 576.683105,242.109314 577.612732,241.903793 
	C582.486511,235.316193 587.403748,228.759750 592.177429,222.100403 
	C592.754883,221.294876 592.557251,219.933746 592.824158,218.800415 
	C592.824158,218.800415 592.813171,218.691513 593.488892,218.630569 
	C594.916748,216.370590 596.344666,214.110611 597.863953,211.851227 
	C597.863953,211.851227 597.844177,211.761963 598.547852,211.754639 
	C600.639221,208.462189 602.730530,205.169739 604.900513,201.898575 
	C604.900513,201.898575 604.879333,201.819931 605.569946,201.793320 
	C607.012634,199.502899 608.455383,197.212479 609.982605,194.981781 
	C609.982605,194.981781 609.922852,194.897354 610.623535,194.930557 
	C611.968445,192.551819 613.313354,190.173080 614.783386,187.778427 
	C614.783386,187.778427 614.799744,187.653381 615.443237,187.718338 
	C615.747070,187.058746 616.050842,186.399155 616.756653,185.242340 
	C617.425354,184.487961 618.094055,183.733597 619.379761,182.659515 
	C621.857178,178.728012 624.334534,174.796509 626.896118,170.906006 
	C626.896118,170.906006 626.873840,170.815079 627.582092,170.876511 
	C634.119324,161.639709 640.656616,152.402893 647.465271,142.847397 
	C647.465271,142.847397 647.561890,142.440109 648.132629,142.113571 
	C652.782959,135.710693 657.532043,129.376404 662.044067,122.877510 
	C664.490906,119.353226 666.533875,115.548584 669.078186,111.437309 
	C669.331970,111.184547 669.585815,110.931786 670.528748,110.735809 
	C675.513611,103.991432 680.696167,97.382172 685.425232,90.462975 
	C689.775330,84.098259 693.637390,77.400009 698.073914,70.462311 
	C698.343445,70.236359 698.612915,70.010406 699.567322,69.826195 
	C700.643066,67.838280 701.718750,65.850357 702.879272,63.856827 
	C702.879272,63.856827 702.848755,63.777557 703.532349,63.742001 
	C705.628723,60.454369 707.725098,57.166737 709.901428,53.888615 
	C709.901428,53.888615 709.873657,53.813034 710.553406,53.738895 
	C712.000183,51.465984 713.446899,49.193073 714.984192,46.969707 
	C714.984192,46.969707 714.917542,46.890930 715.615051,46.887699 
	C716.964294,44.524654 718.313538,42.161606 719.787292,39.769306 
	C719.787292,39.769306 719.791565,39.641529 720.437012,39.688618 
	C720.768860,39.045238 721.100708,38.401855 721.787354,37.231529 
	C722.461365,36.482212 723.135376,35.732899 724.422058,34.669361 
	C726.875183,30.729925 729.328369,26.790485 731.867126,22.864317 
	C731.867126,22.864317 731.854004,22.778643 732.564697,22.807289 
	C734.661560,19.505983 736.758484,16.204676 739.397522,12.679325 
	C739.830017,12.111822 740.262512,11.544318 741.214844,10.578321 
	C741.602966,9.752323 741.991089,8.926327 742.705505,7.405972 
	C740.420898,7.405972 738.810730,7.405866 737.200623,7.405989 
	C723.222351,7.407056 709.215149,7.945968 695.277283,7.196090 
	C687.613708,6.783779 683.312500,10.125594 679.734314,15.894749 
	C679.056274,16.987902 678.283752,18.023108 677.541931,19.075966 
	C661.558716,41.760109 645.552185,64.427971 629.594971,87.130424 
	C614.770813,108.220787 599.962280,129.322418 585.235413,150.480743 
	C582.393372,154.563904 579.960754,158.932037 577.145142,163.572723 
	C577.145142,163.572723 576.997070,163.995834 576.308105,164.079727 
	C575.013000,166.119858 573.717834,168.160004 572.216248,170.625519 
	C572.216248,170.625519 572.047791,171.067307 571.356445,171.120331 
	C569.357666,174.138901 567.358948,177.157471 565.160339,180.579865 
	C565.160339,180.579865 565.000854,181.001251 564.307190,181.069946 
	C563.028137,183.117096 561.749146,185.164246 560.272339,187.662323 
	C560.272339,187.662323 560.076538,188.114090 559.381958,188.175705 
	C557.969910,190.485107 556.557800,192.794495 555.061829,195.068695 
	C555.061829,195.068695 555.105591,195.148483 554.284851,195.196030 
	C552.954102,194.536758 551.167297,194.217987 550.374817,193.156769 
	C547.578613,189.412170 545.246643,185.323792 542.505493,181.534409 
	C539.442261,177.299728 536.124939,173.248795 532.751648,168.648636 
	C532.751648,168.648636 532.561890,168.188232 532.750916,167.560608 
	C532.118652,167.108871 531.486328,166.657135 530.889160,166.125504 
	C530.889160,166.125504 530.802063,166.130844 530.918640,165.404800 
	C529.261719,163.293915 527.604797,161.183014 525.782349,158.622833 
	C525.782349,158.622833 525.574341,158.191544 525.803284,157.487595 
	C522.797241,153.447769 519.791199,149.407944 516.742859,145.235687 
	C516.742859,145.235687 516.604797,145.219467 516.619141,144.502258 
	C515.031311,142.406570 513.443481,140.310898 511.865051,138.131683 
	C511.865051,138.131683 511.781494,138.140747 511.799438,137.416763 
	C510.176453,135.311447 508.553497,133.206146 506.719696,130.652145 
	C506.719696,130.652145 506.502808,130.206345 506.704193,129.516220 
	C505.961456,128.276794 505.308716,126.971680 504.460480,125.809242 
	C500.634430,120.565903 496.753052,115.362976 492.943939,110.054100 
	C492.943939,110.054100 492.852478,110.106300 492.878235,109.386467 
	C488.189423,102.363411 483.586578,95.280762 478.775848,88.342262 
	C476.335999,84.823273 473.521179,81.564301 470.696259,77.693016 
	C470.626312,77.532104 470.556366,77.371201 470.712097,76.541183 
	C469.138428,74.698059 467.564789,72.854935 465.839478,70.579948 
	C465.839478,70.579948 465.640961,70.167534 465.795990,69.462173 
	C463.355133,65.617477 461.081726,61.652283 458.426392,57.961906 
	C455.758850,54.254627 452.710907,50.821102 449.824158,47.165470 
	C449.824158,47.165470 449.721985,47.170280 449.744202,46.446152 
	C448.128418,44.345272 446.512634,42.244396 444.934052,40.064293 
	C444.934052,40.064293 444.854767,40.101395 444.862122,39.365097 
	C443.150818,36.505589 441.604431,33.529766 439.689148,30.814137 
	C436.889160,26.844093 433.824463,23.060751 430.539948,18.705349 
	C430.237091,18.195387 429.934235,17.685427 429.827667,16.489073 
	C427.042877,12.827604 425.643921,7.452759 419.756378,7.441133 
	C399.841156,7.401807 379.925720,7.497158 360.010406,7.564933 
	C359.739685,7.565855 359.469971,7.878026 358.478119,8.490735 
	C359.365601,9.848277 360.277435,11.243052 361.559692,13.028535 
	C361.774384,13.315681 361.989044,13.602829 362.042358,14.609816 
	C370.468170,26.545732 378.837738,38.521935 387.349548,50.396221 
	C390.421387,54.681583 393.834412,58.722370 397.050873,62.961391 
	C397.050873,62.961391 397.128998,62.905964 397.163544,63.621780 
	C398.800781,65.714951 400.437988,67.808121 402.021973,69.979073 
	C402.021973,69.979073 402.099854,69.925949 402.101990,70.622238 
	C402.780243,71.349495 403.458496,72.076752 404.120697,72.892220 
M45.499805,483.604370 
	C124.098381,483.604370 202.696945,483.604370 281.574554,483.604370 
	C281.684235,481.496521 281.823700,480.037323 281.826050,478.577911 
	C281.844543,467.079681 281.631989,455.575928 281.938599,444.085846 
	C282.060394,439.521851 280.450348,438.569183 276.178589,438.576935 
	C206.855865,438.702820 137.532867,438.667664 68.209938,438.671204 
	C60.987057,438.671570 61.000141,438.678284 61.000381,431.616547 
	C61.005093,292.804047 61.006565,153.991531 61.008564,15.179029 
	C61.008656,8.817574 60.646641,8.459068 54.163757,8.457568 
	C42.332203,8.454831 30.500647,8.455861 18.669092,8.457244 
	C12.063382,8.458016 11.805165,8.709607 11.810937,15.086858 
	C11.813048,17.419840 11.815053,19.752821 11.815040,22.085802 
	C11.814141,173.896362 11.837371,325.706970 11.704490,477.517395 
	C11.700117,482.512360 13.295495,483.853607 18.006693,483.693451 
	C26.828543,483.393555 35.667786,483.605377 45.499805,483.604370 
M464.561005,310.938293 
	C424.809387,367.996643 385.057770,425.055023 344.749084,482.912994 
	C347.320953,483.195282 349.172852,483.569855 351.025818,483.575104 
	C367.519073,483.621735 384.015594,483.432678 400.503723,483.727295 
	C404.475220,483.798279 406.585968,482.140961 408.474060,479.222382 
	C412.666870,472.741150 416.826294,466.235596 421.155060,459.845459 
	C436.900146,436.602539 452.737030,413.421814 468.486267,390.181702 
	C483.046509,368.696075 497.485382,347.127899 512.126099,325.697449 
	C514.025757,322.916840 514.240356,320.905090 512.180847,318.181305 
	C504.075897,307.462036 496.074432,296.662567 488.179993,285.787231 
	C485.672455,282.332855 483.664673,283.127655 481.659424,285.995239 
	C476.019501,294.060516 470.446289,302.172455 464.561005,310.938293 
z"/>
<path fill="#FCFCFC" opacity="1.000000" stroke="none" 
	d="
M1177.904175,99.067047 
	C1178.109009,99.330132 1178.313843,99.593208 1178.660034,100.401093 
	C1181.582397,104.855354 1184.456665,108.702217 1187.127930,112.685242 
	C1198.163452,129.139862 1207.820068,146.277924 1213.676392,165.372284 
	C1214.736206,168.827881 1216.932251,171.934967 1218.603760,175.202972 
	C1218.652588,175.907120 1218.701538,176.611282 1218.507690,177.926147 
	C1220.028564,184.763290 1221.792236,190.989731 1223.555786,197.216156 
	C1223.583252,197.619080 1223.610718,198.021973 1223.369141,199.009003 
	C1223.958862,202.787735 1224.817871,205.982330 1225.677002,209.176910 
	C1225.727417,209.886078 1225.777832,210.595261 1225.561279,211.979004 
	C1225.351562,217.130295 1224.797119,221.715820 1225.570679,226.065094 
	C1229.175049,246.326614 1226.509155,266.276764 1223.314331,286.248108 
	C1223.071533,287.765747 1223.542847,289.397675 1223.682129,290.976471 
	C1223.654663,291.674591 1223.627319,292.372711 1223.264648,293.571655 
	C1221.523560,300.377075 1220.117798,306.681671 1218.711914,312.986267 
	C1218.701904,313.387054 1218.691772,313.787811 1218.307983,314.569092 
	C1217.165405,316.204590 1216.201660,317.380981 1215.658325,318.727051 
	C1211.061890,330.113892 1206.832031,341.658905 1201.895874,352.894501 
	C1198.736084,360.086700 1194.567871,366.835785 1190.851807,373.783508 
	C1190.851807,373.783539 1190.846191,373.849579 1190.469238,373.846588 
	C1188.694580,376.184357 1187.296753,378.525085 1185.898926,380.865845 
	C1185.898926,380.865845 1185.953125,380.955994 1185.570557,380.949341 
	C1183.785156,383.286560 1182.382446,385.630463 1180.979614,387.974365 
	C1180.979614,387.974365 1180.755981,388.362213 1180.323486,388.611206 
	C1176.197021,393.475159 1172.502930,398.090118 1168.808960,402.705078 
	C1168.808960,402.705078 1168.801147,402.789581 1168.452637,402.810181 
	C1167.687256,403.481171 1167.270386,404.131561 1166.853394,404.781952 
	C1166.853394,404.781952 1166.841919,404.846558 1166.479004,404.837067 
	C1165.375000,405.838409 1164.633911,406.849243 1163.892822,407.860107 
	C1163.892822,407.860077 1163.958130,407.936676 1163.574463,407.949585 
	C1159.436035,411.945038 1155.681030,415.927582 1151.926147,419.910095 
	C1151.926147,419.910095 1151.996826,419.979614 1151.604736,419.957397 
	C1145.783813,424.592529 1140.354980,429.249847 1134.926147,433.907166 
	C1134.926147,433.907135 1134.990112,433.983826 1134.599609,433.964081 
	C1132.093140,435.563904 1129.977051,437.183441 1127.860962,438.802979 
	C1127.860962,438.802948 1127.876465,438.869965 1127.471924,438.838684 
	C1123.203735,440.985962 1119.244629,443.012482 1115.493652,445.370209 
	C1101.427246,454.211456 1086.379639,460.901154 1070.724487,466.358887 
	C1066.636719,467.783966 1062.766846,469.834290 1058.796875,471.597504 
	C1058.391968,471.622864 1057.987061,471.648193 1057.044678,471.449280 
	C1049.432861,472.836945 1042.336792,474.361572 1035.300903,476.126953 
	C1033.694458,476.529999 1032.296509,477.764069 1030.802612,478.615662 
	C1029.783813,478.664825 1028.764893,478.713989 1027.080688,478.504272 
	C1016.464722,479.055054 1006.496399,479.696228 996.570435,480.739899 
	C990.937561,481.332153 985.374023,482.583710 979.779297,483.538330 
	C927.897766,483.556885 876.016296,483.575470 823.498047,483.208984 
	C822.487671,481.269775 821.787354,479.715668 821.786865,478.161377 
	C821.737061,323.701172 821.754333,169.240921 821.660889,14.780767 
	C821.658508,10.806413 822.770020,9.716069 826.748108,9.728554 
	C880.900269,9.898500 935.052917,9.905276 989.205444,9.909783 
	C991.132935,9.909944 993.060486,9.471756 994.987976,9.237869 
	C998.297852,9.256460 1001.607666,9.275047 1005.508057,9.644191 
	C1008.463440,10.651541 1010.792542,11.524986 1013.200256,11.922749 
	C1019.348938,12.938553 1025.528687,13.771130 1031.703735,14.621118 
	C1036.123291,15.229484 1040.555054,15.747497 1044.981445,16.305819 
	C1045.680664,16.325089 1046.379883,16.344355 1047.552490,16.714920 
	C1049.997192,17.902788 1051.922852,18.876236 1053.947754,19.552204 
	C1062.621216,22.447660 1071.465698,24.889679 1079.977173,28.194485 
	C1089.116821,31.743240 1097.953491,36.072567 1106.922363,40.061264 
	C1106.922363,40.061264 1107.356934,40.223450 1107.651123,40.619659 
	C1111.415771,43.185581 1114.945435,45.267006 1118.345093,47.542656 
	C1126.535156,53.024715 1134.664185,58.597683 1142.817871,64.134003 
	C1142.817871,64.134003 1142.881104,64.102943 1142.901245,64.450699 
	C1143.578613,65.226700 1144.235840,65.654953 1144.893066,66.083206 
	C1144.893066,66.083206 1144.979004,66.021446 1144.968750,66.402596 
	C1151.261719,72.817642 1157.596924,78.818665 1163.857056,84.897102 
	C1167.956543,88.877563 1171.946899,92.970177 1175.986084,97.012573 
	C1175.986084,97.012589 1176.000000,97.000000 1175.962158,97.329010 
	C1176.584229,98.127693 1177.244141,98.597366 1177.904175,99.067047 
M1107.753052,393.182190 
	C1108.266846,392.585846 1108.780518,391.989532 1109.847778,390.999268 
	C1116.039429,384.998718 1122.430664,379.188538 1128.378174,372.954926 
	C1138.408569,362.442200 1146.697388,350.652557 1153.470947,337.755798 
	C1159.729980,325.838806 1164.641846,313.510345 1168.109741,300.451080 
	C1171.480957,287.756500 1173.944458,274.981384 1174.431152,261.913727 
	C1174.864380,250.281998 1174.832397,238.608185 1174.380737,226.977219 
	C1174.092529,219.555069 1173.312988,212.022507 1171.591919,204.816986 
	C1169.237305,194.959381 1165.840088,185.346115 1162.778931,175.663132 
	C1158.253662,161.349091 1150.731323,148.563828 1142.217407,136.343613 
	C1131.633057,121.151619 1118.409546,108.431511 1104.177002,95.919296 
	C1102.134277,94.595520 1100.091553,93.271744 1097.687378,91.726479 
	C1097.687378,91.726479 1097.281250,91.604599 1097.148071,91.002907 
	C1096.470337,90.631210 1095.792480,90.259514 1094.764771,89.606583 
	C1094.764771,89.606583 1094.357056,89.418846 1094.182861,88.798729 
	C1093.084839,88.246254 1091.986694,87.693779 1090.324219,86.836578 
	C1089.311035,86.093422 1088.297974,85.350273 1087.108887,83.980240 
	C1086.138062,83.593384 1085.167236,83.206520 1083.811768,82.511505 
	C1083.811768,82.511505 1083.380615,82.272598 1083.118896,81.683815 
	C1081.772217,81.094330 1080.425659,80.504852 1078.518188,79.703560 
	C1078.126831,79.622971 1077.735596,79.542381 1077.283936,78.828468 
	C1076.591919,78.486717 1075.899902,78.144966 1074.779175,77.614578 
	C1074.779175,77.614578 1074.323364,77.507050 1074.120972,76.905930 
	C1073.168091,76.534264 1072.215332,76.162598 1071.184204,75.807579 
	C1071.184204,75.807579 1071.206421,75.730766 1071.172485,75.055122 
	C1069.110596,74.272614 1067.048706,73.490105 1064.443237,72.606522 
	C1064.078735,72.551376 1063.714233,72.496231 1063.134521,71.795677 
	C1059.751709,70.452209 1056.368896,69.108742 1052.426758,67.685440 
	C1052.052490,67.644394 1051.678101,67.603355 1051.232544,66.957283 
	C1050.156860,66.558739 1049.081299,66.160194 1047.358276,65.588966 
	C1046.692871,65.518761 1046.027466,65.448555 1045.041260,64.815941 
	C1042.692871,64.186394 1040.344360,63.556854 1037.407959,62.830997 
	C1037.012695,62.792763 1036.617310,62.754528 1036.085327,62.108318 
	C1034.721558,61.679585 1033.357666,61.250851 1031.226685,60.683796 
	C1029.932617,60.608860 1028.638428,60.533928 1027.150146,59.836983 
	C1025.439087,59.441151 1023.728088,59.045322 1021.299927,58.486546 
	C1020.326721,58.381104 1019.353577,58.275658 1017.924561,57.671867 
	C1014.280029,57.062630 1010.635498,56.453392 1006.132263,55.766632 
	C1003.851624,55.706413 1001.570923,55.646198 999.027954,54.912155 
	C995.682922,54.501041 992.337891,54.089928 988.058899,53.611622 
	C948.787537,53.611622 909.516113,53.611622 869.734131,53.611622 
	C869.734131,55.565712 869.734192,57.350933 869.734192,59.136158 
	C869.734192,182.925110 869.733704,306.714081 869.738281,430.503021 
	C869.738342,432.667389 869.799805,434.831757 869.429077,437.515717 
	C870.633728,438.258270 871.836853,439.646332 873.043335,439.649231 
	C904.997559,439.726379 936.953064,439.767090 968.905945,439.516418 
	C974.355103,439.473663 979.793762,438.079285 985.823975,437.309570 
	C986.214355,437.286072 986.604797,437.262573 987.609436,437.774719 
	C994.866211,436.734161 1002.122986,435.693573 1010.150330,434.644226 
	C1011.433533,434.550537 1012.716797,434.456848 1014.468445,434.849518 
	C1016.409058,434.035065 1018.349609,433.220612 1021.074402,432.363312 
	C1022.381897,432.288940 1023.689453,432.214600 1025.475952,432.604492 
	C1027.980835,431.688049 1030.485718,430.771606 1033.674683,429.804138 
	C1034.345337,429.674530 1035.015991,429.544922 1036.271240,429.830322 
	C1037.616577,429.035522 1038.961914,428.240723 1040.982056,427.436432 
	C1041.653320,427.376099 1042.324585,427.315735 1043.395874,427.700287 
	C1044.680298,426.908051 1045.964600,426.115814 1047.832397,425.276154 
	C1048.220337,425.234344 1048.608276,425.192535 1049.466309,425.542694 
	C1051.431519,424.564728 1053.396851,423.586731 1055.921997,422.548035 
	C1056.282959,422.452057 1056.643921,422.356079 1057.340942,422.698364 
	C1058.323486,421.933563 1059.305908,421.168732 1060.862305,420.363647 
	C1061.240356,420.302429 1061.618286,420.241211 1062.442993,420.575256 
	C1064.417114,419.572723 1066.391235,418.570190 1068.752808,417.368347 
	C1068.752808,417.368347 1069.082764,417.083862 1069.696045,417.184357 
	C1070.240112,416.620941 1070.784180,416.057495 1071.932739,415.419037 
	C1072.323242,415.315247 1072.713867,415.211426 1073.815674,415.214783 
	C1075.273071,414.220978 1076.730347,413.227142 1078.114136,412.116638 
	C1078.114136,412.116638 1078.230591,412.190643 1078.953247,412.284027 
	C1081.057861,410.976715 1083.162476,409.669403 1085.677246,408.257751 
	C1085.677246,408.257751 1086.045410,408.048828 1086.725708,408.102966 
	C1087.893188,407.172577 1089.060791,406.242188 1090.256836,405.258240 
	C1090.256836,405.258240 1090.311157,405.231567 1090.896973,405.327545 
	C1091.387817,404.754852 1091.878662,404.182159 1092.799683,403.427338 
	C1092.799683,403.427338 1093.197021,403.181610 1093.918579,403.247955 
	C1096.992676,400.888977 1100.066650,398.529968 1103.062378,396.026123 
	C1103.062378,396.026123 1103.171265,396.149780 1103.857910,396.282715 
	C1104.945312,395.233490 1106.032715,394.184265 1107.005981,393.020996 
	C1107.005981,393.020996 1107.134277,393.118347 1107.753052,393.182190 
z"/>
<path fill="#F8F8F8" opacity="1.000000" stroke="none" 
	d="
M44.999802,483.604370 
	C35.667786,483.605377 26.828543,483.393555 18.006693,483.693451 
	C13.295495,483.853607 11.700117,482.512360 11.704490,477.517395 
	C11.837371,325.706970 11.814141,173.896362 11.815040,22.085802 
	C11.815053,19.752821 11.813048,17.419840 11.810937,15.086858 
	C11.805165,8.709607 12.063382,8.458016 18.669092,8.457244 
	C30.500647,8.455861 42.332203,8.454831 54.163757,8.457568 
	C60.646641,8.459068 61.008656,8.817574 61.008564,15.179029 
	C61.006565,153.991531 61.005093,292.804047 61.000381,431.616547 
	C61.000141,438.678284 60.987057,438.671570 68.209938,438.671204 
	C137.532867,438.667664 206.855865,438.702820 276.178589,438.576935 
	C280.450348,438.569183 282.060394,439.521851 281.938599,444.085846 
	C281.631989,455.575928 281.844543,467.079681 281.826050,478.577911 
	C281.823700,480.037323 281.684235,481.496521 281.574554,483.604370 
	C202.696945,483.604370 124.098381,483.604370 44.999802,483.604370 
z"/>
<path fill="#FAFAFA" opacity="1.000000" stroke="none" 
	d="
M565.000854,181.001266 
	C565.000854,181.001251 565.160339,180.579865 565.593018,180.342621 
	C568.033142,177.092682 570.040466,174.080002 572.047791,171.067322 
	C572.047791,171.067307 572.216248,170.625519 572.650757,170.380951 
	C574.389160,168.089539 575.693115,166.042679 576.997070,163.995834 
	C576.997070,163.995834 577.145142,163.572723 577.577209,163.343643 
	C578.809387,162.287338 579.737854,161.550140 580.390320,160.619415 
	C590.652161,145.980804 600.844849,131.293671 611.119629,116.664169 
	C635.288269,82.252129 659.509888,47.877186 683.646362,13.442612 
	C685.424133,10.906381 687.321655,9.749342 690.586060,9.791596 
	C705.721741,9.987508 720.861633,9.842631 735.999451,9.921082 
	C737.566406,9.929203 739.129883,10.608774 740.695007,10.976805 
	C740.262512,11.544318 739.830017,12.111822 738.786377,12.807249 
	C736.068115,16.216326 733.961060,19.497478 731.854004,22.778637 
	C731.854004,22.778643 731.867126,22.864317 731.478027,22.860928 
	C728.662415,26.899555 726.235901,30.941576 723.809387,34.983589 
	C723.135376,35.732899 722.461365,36.482212 721.320190,37.506065 
	C720.499146,38.400909 720.145386,39.021217 719.791565,39.641525 
	C719.791565,39.641529 719.787292,39.769306 719.384155,39.801994 
	C717.626526,42.186768 716.272034,44.538853 714.917542,46.890934 
	C714.917542,46.890930 714.984192,46.969707 714.598755,46.951271 
	C712.766785,49.226238 711.320251,51.519638 709.873657,53.813038 
	C709.873657,53.813034 709.901428,53.888615 709.523804,53.921310 
	C707.047058,57.228527 704.947876,60.503044 702.848755,63.777557 
	C702.848755,63.777557 702.879272,63.856827 702.497131,63.878410 
	C701.037476,65.861488 699.959961,67.822975 698.882446,69.784462 
	C698.612915,70.010406 698.343445,70.236359 697.560059,70.696762 
	C696.313904,71.598122 695.431702,72.158905 694.872864,72.948586 
	C690.028931,79.793526 685.124451,86.600601 680.477539,93.578453 
	C676.758301,99.163261 673.373047,104.970505 669.839600,110.679016 
	C669.585815,110.931786 669.331970,111.184547 668.582642,111.695107 
	C667.177063,112.886925 666.137756,113.726944 665.378784,114.770721 
	C661.534729,120.057030 657.600586,125.289635 654.023376,130.754013 
	C651.592163,134.467819 649.696838,138.532394 647.561890,142.440125 
	C647.561890,142.440109 647.465271,142.847397 646.978149,142.966187 
	C643.660828,146.607117 640.624207,149.985550 638.048645,153.684998 
	C634.155029,159.277588 630.582703,165.093872 626.873840,170.815079 
	C626.873840,170.815079 626.896118,170.906006 626.504272,170.868423 
	C623.662476,174.880310 621.212585,178.929779 618.762756,182.979233 
	C618.094055,183.733597 617.425354,184.487961 616.273315,185.520386 
	C615.459900,186.416748 615.129822,187.035080 614.799805,187.653381 
	C614.799744,187.653381 614.783386,187.778427 614.378235,187.798218 
	C612.622986,190.177780 611.272888,192.537567 609.922852,194.897354 
	C609.922852,194.897354 609.982605,194.981781 609.598022,194.948059 
	C607.768738,197.216217 606.324036,199.518066 604.879333,201.819916 
	C604.879333,201.819931 604.900513,201.898575 604.521240,201.914154 
	C602.042725,205.207138 599.943481,208.484558 597.844177,211.761963 
	C597.844177,211.761963 597.863953,211.851227 597.481445,211.869781 
	C595.670349,214.156067 594.241760,216.423798 592.813171,218.691528 
	C592.813171,218.691513 592.824158,218.800415 592.442139,218.868805 
	C587.017151,226.586578 581.974182,234.235977 576.931152,241.885361 
	C576.683105,242.109314 576.435120,242.333267 575.666260,242.768829 
	C571.715454,248.226334 568.285522,253.472214 564.855591,258.718109 
	C564.591553,258.957458 564.327454,259.196808 563.565186,259.690704 
	C560.300659,263.462555 557.534241,266.979858 554.224854,271.187592 
	C550.209045,267.839142 546.659119,264.879089 543.109131,261.919067 
	C543.109131,261.919067 543.023010,261.976166 543.068481,261.582825 
	C538.933533,255.478043 534.892395,249.657501 530.529236,244.089279 
	C526.952454,239.524704 522.992432,235.260452 519.202332,230.863083 
	C519.202332,230.863083 519.116150,230.886047 519.135071,230.482697 
	C516.356812,226.014786 513.646545,221.886978 510.744232,217.898956 
	C504.823486,209.763351 498.850586,201.664337 492.789154,193.633255 
	C490.746033,190.926178 488.370270,188.470139 486.146576,185.899338 
	C486.146576,185.899338 486.052032,185.912323 486.142700,185.552765 
	C485.282166,184.391083 484.330933,183.588974 483.379700,182.786865 
	C483.379700,182.786850 483.246399,182.774887 483.201050,182.360626 
	C480.804962,178.938553 478.454224,175.930725 476.103516,172.922882 
	C476.103516,172.922882 476.033875,172.981308 476.003845,172.589722 
	C474.397339,170.079605 472.820801,167.961075 471.244263,165.842560 
	C471.244263,165.842560 471.156311,165.862366 471.154419,165.516907 
	C470.558594,164.714554 469.964661,164.257645 469.370758,163.800751 
	C469.370758,163.800751 469.240936,163.752411 469.200867,163.332733 
	C467.048767,160.324371 464.936737,157.735703 462.824738,155.147018 
	C462.567535,154.924194 462.390503,154.649689 462.177673,153.753693 
	C460.457581,151.071045 458.853363,148.958191 457.249146,146.845337 
	C457.249146,146.845352 457.155182,146.848541 457.135559,146.456909 
	C454.903412,143.309937 452.690948,140.554596 450.478455,137.799255 
	C450.478455,137.799271 450.261597,137.369919 450.128174,136.804535 
	C444.456085,128.278336 438.990540,120.265091 433.341431,112.383446 
	C431.191315,109.383629 428.619507,106.686058 426.239899,103.850723 
	C426.239899,103.850723 426.147644,103.845520 426.171143,103.448044 
	C424.572052,100.970222 422.949432,98.889885 421.326813,96.809555 
	C421.326813,96.809555 421.209015,96.796143 421.197327,96.383682 
	C418.848480,92.941643 416.511292,89.912048 414.174103,86.882462 
	C414.174103,86.882462 414.094086,86.904984 414.119141,86.511215 
	C412.508209,84.027817 410.872223,81.938187 409.236206,79.848549 
	C409.236206,79.848549 409.148010,79.861229 409.148376,79.469513 
	C407.500732,77.005463 405.852692,74.933113 404.204651,72.860764 
	C404.204651,72.860764 404.120697,72.892220 404.170898,72.513466 
	C403.514008,71.398453 402.806915,70.662201 402.099854,69.925949 
	C402.099854,69.925949 402.021973,69.979073 402.059143,69.587654 
	C400.440552,67.099487 398.784760,65.002731 397.128998,62.905968 
	C397.128998,62.905964 397.050873,62.961391 397.073853,62.564423 
	C387.551666,48.521416 378.045563,34.847790 368.427490,21.253363 
	C366.578186,18.639511 364.289642,16.336430 362.203735,13.889977 
	C361.989044,13.602829 361.774384,13.315681 361.406067,12.433384 
	C362.796021,11.184799 364.335052,9.976029 365.883881,9.963306 
	C382.503662,9.826785 399.127197,10.032283 415.744568,9.789282 
	C420.936188,9.713363 425.239990,10.140615 427.226868,15.814469 
	C427.455933,16.468586 428.802765,16.731283 429.631378,17.175457 
	C429.934235,17.685427 430.237091,18.195387 430.668762,19.313318 
	C435.483307,26.647993 440.169037,33.374699 444.854767,40.101398 
	C444.854767,40.101395 444.934052,40.064293 444.915894,40.452702 
	C446.505829,42.950836 448.113922,45.060558 449.721985,47.170280 
	C449.721985,47.170280 449.824158,47.165470 449.828491,47.572872 
	C454.029846,54.445576 458.179565,60.942539 462.467926,67.346642 
	C463.230103,68.484833 464.568573,69.237076 465.640961,70.167526 
	C465.640961,70.167534 465.839478,70.579948 465.874268,71.144333 
	C467.434875,73.542580 468.960663,75.376434 470.486420,77.210297 
	C470.556366,77.371201 470.626312,77.532104 470.768127,78.300240 
	C473.008820,82.393890 474.991760,86.014130 477.385040,89.339005 
	C482.426910,96.343460 487.683838,103.193115 492.852478,110.106300 
	C492.852478,110.106300 492.943939,110.054100 492.862732,110.463348 
	C497.355286,117.317184 501.929047,123.761765 506.502808,130.206345 
	C506.502808,130.206345 506.719696,130.652145 506.815796,131.227417 
	C508.535095,133.915375 510.158295,136.028061 511.781494,138.140747 
	C511.781494,138.140747 511.865051,138.131683 511.857056,138.524902 
	C513.434326,141.018570 515.019531,143.119019 516.604797,145.219482 
	C516.604797,145.219467 516.742859,145.235687 516.744812,145.655960 
	C519.689270,150.114670 522.631836,154.153107 525.574341,158.191544 
	C525.574341,158.191544 525.782349,158.622833 525.828308,159.199982 
	C527.516846,161.895035 529.159485,164.012939 530.802063,166.130844 
	C530.802063,166.130844 530.889160,166.125504 530.816467,166.468811 
	C531.349792,167.270828 531.955872,167.729523 532.561890,168.188232 
	C532.561890,168.188232 532.751648,168.648636 532.805725,169.245667 
	C539.166870,179.371826 545.473938,188.900970 552.345703,199.283295 
	C553.640137,197.343964 554.372864,196.246216 555.105591,195.148468 
	C555.105591,195.148483 555.061829,195.068695 555.441772,195.065033 
	C557.240051,192.745621 558.658264,190.429855 560.076538,188.114090 
	C560.076538,188.114090 560.272339,187.662323 560.700684,187.400970 
	C562.419678,185.093506 563.710266,183.047394 565.000854,181.001266 
z"/>
<path fill="#F9F9F9" opacity="1.000000" stroke="none" 
	d="
M464.703888,310.602173 
	C470.446289,302.172455 476.019501,294.060516 481.659424,285.995239 
	C483.664673,283.127655 485.672455,282.332855 488.179993,285.787231 
	C496.074432,296.662567 504.075897,307.462036 512.180847,318.181305 
	C514.240356,320.905090 514.025757,322.916840 512.126099,325.697449 
	C497.485382,347.127899 483.046509,368.696075 468.486267,390.181702 
	C452.737030,413.421814 436.900146,436.602539 421.155060,459.845459 
	C416.826294,466.235596 412.666870,472.741150 408.474060,479.222382 
	C406.585968,482.140961 404.475220,483.798279 400.503723,483.727295 
	C384.015594,483.432678 367.519073,483.621735 351.025818,483.575104 
	C349.172852,483.569855 347.320953,483.195282 344.749084,482.912994 
	C385.057770,425.055023 424.809387,367.996643 464.703888,310.602173 
z"/>
<path fill="#FCFCFC" opacity="1.000000" stroke="none" 
	d="
M666.577148,350.203522 
	C666.577148,350.203522 666.779114,350.622589 666.833496,351.190216 
	C668.546326,353.871643 670.204712,355.985474 671.863098,358.099304 
	C671.863098,358.099304 671.946899,358.055664 671.912720,358.451508 
	C673.510620,360.948639 675.142639,363.049896 676.774597,365.151184 
	C676.774597,365.151184 676.849121,365.143677 676.854126,365.540283 
	C680.827026,371.343811 684.795044,376.750732 688.763062,382.157654 
	C688.763062,382.157654 688.839966,382.151489 688.814697,382.549866 
	C689.574646,384.401337 690.230591,385.944092 691.165771,387.293243 
	C698.522766,397.907135 705.846436,408.546021 713.360291,419.048523 
	C717.731567,425.158386 722.434204,431.031128 726.987793,437.010590 
	C726.987793,437.010590 727.000000,437.000000 726.983093,437.360901 
	C728.622070,439.832611 730.277954,441.943420 731.933777,444.054230 
	C731.933777,444.054230 731.993896,444.000488 731.958740,444.389160 
	C735.914795,450.212036 739.906006,455.646210 743.897156,461.080383 
	C743.897156,461.080383 743.916748,461.011414 743.917236,461.399536 
	C745.567810,463.893463 747.217834,465.999329 748.867798,468.105164 
	C748.867859,468.105164 748.950989,468.024048 748.907898,468.417908 
	C750.107178,470.281891 751.349548,471.751984 752.591980,473.222076 
	C752.591980,473.222076 752.773438,473.659973 752.771179,474.231689 
	C753.817627,475.892517 754.866333,476.981659 755.915039,478.070801 
	C755.915039,478.070801 755.988281,478.003662 755.918945,478.379395 
	C755.823853,480.351196 755.798157,481.947266 755.772400,483.543335 
	C736.234436,483.552399 716.696411,483.561462 696.647827,483.208771 
	C694.544922,480.825500 692.952637,478.803986 691.360291,476.782471 
	C691.360291,476.782471 691.261414,476.746918 691.244507,476.343445 
	C688.289185,471.888031 685.350830,467.836060 682.412476,463.784088 
	C682.412476,463.784088 682.262146,463.325806 682.212646,462.740784 
	C677.166199,455.061096 672.169128,447.966400 667.172058,440.871735 
	C667.172058,440.871735 667.090698,440.920380 667.147949,440.577026 
	C666.636414,439.741516 666.067627,439.249390 665.498779,438.757233 
	C665.498779,438.757233 665.303040,438.313324 665.229126,437.733398 
	C661.143677,431.404602 657.132202,425.655731 653.120667,419.906860 
	C653.120667,419.906860 653.017090,419.960358 653.125488,419.611816 
	C652.623352,418.771759 652.012817,418.280304 651.402283,417.788818 
	C651.402283,417.788818 651.242554,417.349365 651.187866,416.779053 
	C649.496948,414.089142 647.860718,411.969513 646.224426,409.849854 
	C646.224426,409.849854 646.164062,409.829132 646.201965,409.438171 
	C642.873657,404.328888 639.507385,399.610565 636.141174,394.892273 
	C636.141174,394.892273 636.052734,394.956818 636.087769,394.556915 
	C634.804443,392.399902 633.486206,390.642761 632.167908,388.885651 
	C631.960510,388.615784 631.753113,388.345947 631.404053,387.543335 
	C629.959167,385.274811 628.655823,383.539062 627.352539,381.803284 
	C627.352539,381.803284 627.178406,381.405914 627.097778,380.864532 
	C625.531128,378.461548 624.045166,376.599945 622.559204,374.738342 
	C622.559204,374.738342 622.339539,374.295227 622.234009,373.721924 
	C620.528198,371.031311 618.927979,368.914032 617.327698,366.796722 
	C617.327698,366.796722 617.239075,366.764069 617.233643,366.362671 
	C614.283630,361.904572 611.338989,357.847870 608.394348,353.791199 
	C608.394348,353.791199 608.249573,353.335876 608.202026,352.752502 
	C604.925964,347.697937 601.697449,343.226776 598.468872,338.755646 
	C598.468872,338.755646 598.243835,338.369934 598.135864,337.827148 
	C596.415955,335.143646 594.803894,333.002960 593.191895,330.862244 
	C593.191895,330.862244 593.123657,330.882965 593.161499,330.546417 
	C592.614990,329.729065 592.030762,329.248291 591.446472,328.767487 
	C591.446472,328.767487 591.240295,328.360687 591.216125,327.798370 
	C591.206299,325.496918 591.220642,323.757812 591.234985,322.018677 
	C591.656128,321.429413 592.077209,320.840149 593.089905,320.143463 
	C594.182007,319.115723 594.682617,318.195435 595.183167,317.275116 
	C595.183167,317.275116 595.208130,317.200928 595.596191,317.218994 
	C598.767456,312.868561 601.550598,308.500000 604.632935,304.011017 
	C607.339111,300.335266 609.746094,296.779968 612.153015,293.224670 
	C612.153015,293.224670 612.150940,293.146423 612.536926,293.162354 
	C615.025391,290.417694 617.127808,287.657166 619.469788,284.582184 
	C628.534424,297.557251 637.074951,309.910431 645.770752,322.153351 
	C648.494141,325.987579 651.635803,329.524658 654.586060,333.197723 
	C654.586060,333.197723 654.763977,333.630951 654.852905,334.196594 
	C656.585327,336.872742 658.228821,338.983185 659.872314,341.093658 
	C659.872314,341.093658 659.958008,341.046143 659.929688,341.436768 
	C661.543884,343.925415 663.186462,346.023468 664.828979,348.121552 
	C664.828979,348.121552 664.905701,348.092041 664.851074,348.433044 
	C665.389954,349.250549 665.983582,349.727051 666.577148,350.203522 
z"/>
<path fill="#939393" opacity="1.000000" stroke="none" 
	d="
M994.650024,9.019113 
	C993.060486,9.471756 991.132935,9.909944 989.205444,9.909783 
	C935.052917,9.905276 880.900269,9.898500 826.748108,9.728554 
	C822.770020,9.716069 821.658508,10.806413 821.660889,14.780767 
	C821.754333,169.240921 821.737061,323.701172 821.786865,478.161377 
	C821.787354,479.715668 822.487671,481.269775 823.045105,483.186584 
	C822.253174,482.673401 820.769104,481.960266 820.424072,480.882507 
	C819.940674,479.372314 820.306885,477.590698 820.306885,475.925201 
	C820.306885,322.532715 820.307068,169.140259 820.304993,15.747777 
	C820.304932,7.097245 820.296021,7.256674 829.012939,7.276615 
	C860.823792,7.349387 892.634949,7.306289 924.445984,7.306713 
	C938.269653,7.306898 952.096497,7.124192 965.915833,7.369873 
	C975.386719,7.538247 984.846985,8.302488 994.650024,9.019113 
z"/>
<path fill="#9E9E9E" opacity="1.000000" stroke="none" 
	d="
M740.954956,10.777557 
	C739.129883,10.608774 737.566406,9.929203 735.999451,9.921082 
	C720.861633,9.842631 705.721741,9.987508 690.586060,9.791596 
	C687.321655,9.749342 685.424133,10.906381 683.646362,13.442612 
	C659.509888,47.877186 635.288269,82.252129 611.119629,116.664169 
	C600.844849,131.293671 590.652161,145.980804 580.390320,160.619415 
	C579.737854,161.550140 578.809387,162.287338 577.674255,163.141632 
	C579.960754,158.932037 582.393372,154.563904 585.235413,150.480743 
	C599.962280,129.322418 614.770813,108.220787 629.594971,87.130424 
	C645.552185,64.427971 661.558716,41.760109 677.541931,19.075966 
	C678.283752,18.023108 679.056274,16.987902 679.734314,15.894749 
	C683.312500,10.125594 687.613708,6.783779 695.277283,7.196090 
	C709.215149,7.945968 723.222351,7.407056 737.200623,7.405989 
	C738.810730,7.405866 740.420898,7.405972 742.705505,7.405972 
	C741.991089,8.926327 741.602966,9.752323 740.954956,10.777557 
z"/>
<path fill="#9E9E9E" opacity="1.000000" stroke="none" 
	d="
M429.729523,16.832262 
	C428.802765,16.731283 427.455933,16.468586 427.226868,15.814469 
	C425.239990,10.140615 420.936188,9.713363 415.744568,9.789282 
	C399.127197,10.032283 382.503662,9.826785 365.883881,9.963306 
	C364.335052,9.976029 362.796021,11.184799 361.220856,12.238030 
	C360.277435,11.243052 359.365601,9.848277 358.478119,8.490735 
	C359.469971,7.878026 359.739685,7.565855 360.010406,7.564933 
	C379.925720,7.497158 399.841156,7.401807 419.756378,7.441133 
	C425.643921,7.452759 427.042877,12.827604 429.729523,16.832262 
z"/>
<path fill="#939393" opacity="1.000000" stroke="none" 
	d="
M1224.002808,290.767090 
	C1223.542847,289.397675 1223.071533,287.765747 1223.314331,286.248108 
	C1226.509155,266.276764 1229.175049,246.326614 1225.570679,226.065094 
	C1224.797119,221.715820 1225.351562,217.130295 1225.551758,212.334625 
	C1230.983276,230.922089 1228.504639,250.175659 1228.210327,269.304291 
	C1228.122314,275.024078 1226.724731,280.732239 1225.796997,286.424500 
	C1225.565552,287.844574 1224.828369,289.182190 1224.002808,290.767090 
z"/>
<path fill="#939393" opacity="1.000000" stroke="none" 
	d="
M1218.743286,174.816864 
	C1216.932251,171.934967 1214.736206,168.827881 1213.676392,165.372284 
	C1207.820068,146.277924 1198.163452,129.139862 1187.127930,112.685242 
	C1184.456665,108.702217 1181.582397,104.855354 1178.822510,100.591156 
	C1184.160034,107.255829 1190.063965,113.914673 1194.646606,121.384171 
	C1200.623535,131.126251 1205.820679,141.380875 1210.823608,151.672424 
	C1213.419922,157.013092 1214.877197,162.907639 1216.846436,168.552887 
	C1217.529541,170.510712 1218.204224,172.471375 1218.743286,174.816864 
z"/>
<path fill="#939393" opacity="1.000000" stroke="none" 
	d="
M1059.195557,471.738953 
	C1062.766846,469.834290 1066.636719,467.783966 1070.724487,466.358887 
	C1086.379639,460.901154 1101.427246,454.211456 1115.493652,445.370209 
	C1119.244629,443.012482 1123.203735,440.985962 1127.437866,438.833649 
	C1125.220703,440.876404 1122.859375,443.318604 1120.005737,444.834625 
	C1108.596680,450.895966 1097.213867,457.062866 1085.468628,462.416565 
	C1077.136963,466.214264 1068.239258,468.770233 1059.195557,471.738953 
z"/>
<path fill="#989898" opacity="1.000000" stroke="none" 
	d="
M654.686279,332.847260 
	C651.635803,329.524658 648.494141,325.987579 645.770752,322.153351 
	C637.074951,309.910431 628.534424,297.557251 619.469788,284.582184 
	C617.127808,287.657166 615.025391,290.417694 612.575439,293.169647 
	C614.352173,289.477417 616.476501,285.793823 619.209229,281.055206 
	C631.695312,299.109009 643.240967,315.802887 654.686279,332.847260 
z"/>
<path fill="#939393" opacity="1.000000" stroke="none" 
	d="
M1191.202271,373.799194 
	C1194.567871,366.835785 1198.736084,360.086700 1201.895874,352.894501 
	C1206.832031,341.658905 1211.061890,330.113892 1215.658325,318.727051 
	C1216.201660,317.380981 1217.165405,316.204590 1218.266357,314.866943 
	C1216.979858,320.351288 1215.943115,326.175201 1213.621948,331.431854 
	C1208.739258,342.489258 1203.286865,353.301636 1197.841675,364.100311 
	C1196.114746,367.524811 1193.669434,370.586975 1191.202271,373.799194 
z"/>
<path fill="#939393" opacity="1.000000" stroke="none" 
	d="
M1106.891357,39.712570 
	C1097.953491,36.072567 1089.116821,31.743240 1079.977173,28.194485 
	C1071.465698,24.889679 1062.621216,22.447660 1053.947754,19.552204 
	C1051.922852,18.876236 1049.997192,17.902788 1047.900146,16.752949 
	C1051.887207,17.211107 1056.113159,17.614807 1060.086792,18.838228 
	C1066.401001,20.782242 1072.713379,22.904186 1078.725464,25.617794 
	C1088.234619,29.909941 1097.494873,34.753609 1106.891357,39.712570 
z"/>
<path fill="#989898" opacity="1.000000" stroke="none" 
	d="
M726.994202,436.646118 
	C722.434204,431.031128 717.731567,425.158386 713.360291,419.048523 
	C705.846436,408.546021 698.522766,397.907135 691.165771,387.293243 
	C690.230591,385.944092 689.574646,384.401337 688.816406,382.588440 
	C691.060120,384.881805 693.468994,387.398926 695.461426,390.211060 
	C705.859985,404.887634 716.158264,419.635345 726.458984,434.381012 
	C726.815552,434.891541 726.827881,435.642639 726.994202,436.646118 
z"/>
<path fill="#939393" opacity="1.000000" stroke="none" 
	d="
M980.233643,483.712799 
	C985.374023,482.583710 990.937561,481.332153 996.570435,480.739899 
	C1006.496399,479.696228 1016.464722,479.055054 1026.697998,478.505188 
	C1023.389954,479.745544 1019.847290,481.291962 1016.199524,481.602448 
	C1004.383118,482.608154 992.528137,483.160370 980.233643,483.712799 
z"/>
<path fill="#9E9E9E" opacity="1.000000" stroke="none" 
	d="
M362.123047,14.249896 
	C364.289642,16.336430 366.578186,18.639511 368.427490,21.253363 
	C378.045563,34.847790 387.551666,48.521416 397.094299,62.521111 
	C393.834412,58.722370 390.421387,54.681583 387.349548,50.396221 
	C378.837738,38.521935 370.468170,26.545732 362.123047,14.249896 
z"/>
<path fill="#9E9E9E" opacity="1.000000" stroke="none" 
	d="
M486.073303,186.266022 
	C488.370270,188.470139 490.746033,190.926178 492.789154,193.633255 
	C498.850586,201.664337 504.823486,209.763351 510.744232,217.898956 
	C513.646545,221.886978 516.356812,226.014786 519.146606,230.439621 
	C515.761292,226.574875 512.303711,222.410645 509.021606,218.112473 
	C501.610077,208.406555 494.276062,198.641327 486.946472,188.873260 
	C486.474304,188.243973 486.308411,187.384872 486.073303,186.266022 
z"/>
<path fill="#939393" opacity="1.000000" stroke="none" 
	d="
M1176.018799,96.649040 
	C1171.946899,92.970177 1167.956543,88.877563 1163.857056,84.897102 
	C1157.596924,78.818665 1151.261719,72.817642 1144.937134,66.445007 
	C1149.809692,70.089149 1155.036987,73.732994 1159.514160,78.139206 
	C1165.338379,83.871178 1170.566650,90.208656 1176.018799,96.649040 
z"/>
<path fill="#939393" opacity="1.000000" stroke="none" 
	d="
M1044.770874,16.004257 
	C1040.555054,15.747497 1036.123291,15.229484 1031.703735,14.621118 
	C1025.528687,13.771130 1019.348938,12.938553 1013.200256,11.922749 
	C1010.792542,11.524986 1008.463440,10.651541 1005.953125,9.675640 
	C1015.102478,10.602490 1024.413086,11.744342 1033.684326,13.145992 
	C1037.354614,13.700870 1040.937622,14.833269 1044.770874,16.004257 
z"/>
<path fill="#9E9E9E" opacity="1.000000" stroke="none" 
	d="
M670.184204,110.707413 
	C673.373047,104.970505 676.758301,99.163261 680.477539,93.578453 
	C685.124451,86.600601 690.028931,79.793526 694.872864,72.948586 
	C695.431702,72.158905 696.313904,71.598122 697.380310,70.889946 
	C693.637390,77.400009 689.775330,84.098259 685.425232,90.462975 
	C680.696167,97.382172 675.513611,103.991432 670.184204,110.707413 
z"/>
<path fill="#939393" opacity="1.000000" stroke="none" 
	d="
M1142.764648,63.800877 
	C1134.664185,58.597683 1126.535156,53.024715 1118.345093,47.542656 
	C1114.945435,45.267006 1111.415771,43.185581 1107.871582,40.691498 
	C1112.450684,42.693092 1117.435669,44.535534 1121.682129,47.452843 
	C1128.935791,52.436203 1135.726440,58.093491 1142.764648,63.800877 
z"/>
<path fill="#9E9E9E" opacity="1.000000" stroke="none" 
	d="
M426.214478,104.213806 
	C428.619507,106.686058 431.191315,109.383629 433.341431,112.383446 
	C438.990540,120.265091 444.456085,128.278336 450.017456,136.591003 
	C447.190063,133.573898 444.109528,130.370895 441.538086,126.801147 
	C436.276978,119.497360 431.289337,111.996574 426.214478,104.213806 
z"/>
<path fill="#9E9E9E" opacity="1.000000" stroke="none" 
	d="
M492.865356,109.746384 
	C487.683838,103.193115 482.426910,96.343460 477.385040,89.339005 
	C474.991760,86.014130 473.008820,82.393890 470.857910,78.547623 
	C473.521179,81.564301 476.335999,84.823273 478.775848,88.342262 
	C483.586578,95.280762 488.189423,102.363411 492.865356,109.746384 
z"/>
<path fill="#9E9E9E" opacity="1.000000" stroke="none" 
	d="
M519.178345,231.219406 
	C522.992432,235.260452 526.952454,239.524704 530.529236,244.089279 
	C534.892395,249.657501 538.933533,255.478043 543.098328,261.540649 
	C541.728943,260.814911 540.074158,259.963745 539.070251,258.624664 
	C532.354126,249.666397 525.776733,240.604187 519.178345,231.219406 
z"/>
<path fill="#9E9E9E" opacity="1.000000" stroke="none" 
	d="
M554.695190,195.172241 
	C554.372864,196.246216 553.640137,197.343964 552.345703,199.283295 
	C545.473938,188.900970 539.166870,179.371826 532.889038,169.480301 
	C536.124939,173.248795 539.442261,177.299728 542.505493,181.534409 
	C545.246643,185.323792 547.578613,189.412170 550.374817,193.156769 
	C551.167297,194.217987 552.954102,194.536758 554.695190,195.172241 
z"/>
<path fill="#9E9E9E" opacity="1.000000" stroke="none" 
	d="
M647.847290,142.276855 
	C649.696838,138.532394 651.592163,134.467819 654.023376,130.754013 
	C657.600586,125.289635 661.534729,120.057030 665.378784,114.770721 
	C666.137756,113.726944 667.177063,112.886925 668.423035,111.911652 
	C666.533875,115.548584 664.490906,119.353226 662.044067,122.877510 
	C657.532043,129.376404 652.782959,135.710693 647.847290,142.276855 
z"/>
<path fill="#9E9E9E" opacity="1.000000" stroke="none" 
	d="
M543.078979,262.289459 
	C546.659119,264.879089 550.209045,267.839142 554.224854,271.187592 
	C557.534241,266.979858 560.300659,263.462555 563.401733,259.902588 
	C561.109253,264.390015 558.482117,268.920105 555.656250,273.792908 
	C550.874207,270.418243 544.551575,269.385498 543.078979,262.289459 
z"/>
<path fill="#9E9E9E" opacity="1.000000" stroke="none" 
	d="
M627.227966,170.845795 
	C630.582703,165.093872 634.155029,159.277588 638.048645,153.684998 
	C640.624207,149.985550 643.660828,146.607117 646.842468,143.125519 
	C640.656616,152.402893 634.119324,161.639709 627.227966,170.845795 
z"/>
<path fill="#939393" opacity="1.000000" stroke="none" 
	d="
M1031.222168,478.756287 
	C1032.296509,477.764069 1033.694458,476.529999 1035.300903,476.126953 
	C1042.336792,474.361572 1049.432861,472.836945 1056.741333,471.476349 
	C1053.523926,473.337463 1050.210083,475.464874 1046.586914,476.429810 
	C1041.730591,477.723083 1036.634766,478.116882 1031.222168,478.756287 
z"/>
<path fill="#9E9E9E" opacity="1.000000" stroke="none" 
	d="
M465.718475,69.814850 
	C464.568573,69.237076 463.230103,68.484833 462.467926,67.346642 
	C458.179565,60.942539 454.029846,54.445576 449.831238,47.623940 
	C452.710907,50.821102 455.758850,54.254627 458.426392,57.961906 
	C461.081726,61.652283 463.355133,65.617477 465.718475,69.814850 
z"/>
<path fill="#9E9E9E" opacity="1.000000" stroke="none" 
	d="
M577.271973,241.894592 
	C581.974182,234.235977 587.017151,226.586578 592.389526,218.883667 
	C592.557251,219.933746 592.754883,221.294876 592.177429,222.100403 
	C587.403748,228.759750 582.486511,235.316193 577.271973,241.894592 
z"/>
<path fill="#9E9E9E" opacity="1.000000" stroke="none" 
	d="
M444.858459,39.733250 
	C440.169037,33.374699 435.483307,26.647993 430.835083,19.559563 
	C433.824463,23.060751 436.889160,26.844093 439.689148,30.814137 
	C441.604431,33.529766 443.150818,36.505589 444.858459,39.733250 
z"/>
<path fill="#9E9E9E" opacity="1.000000" stroke="none" 
	d="
M506.603516,129.861282 
	C501.929047,123.761765 497.355286,117.317184 492.836548,110.509048 
	C496.753052,115.362976 500.634430,120.565903 504.460480,125.809242 
	C505.308716,126.971680 505.961456,128.276794 506.603516,129.861282 
z"/>
<path fill="#919191" opacity="1.000000" stroke="none" 
	d="
M667.156860,441.238708 
	C672.169128,447.966400 677.166199,455.061096 682.132690,462.513306 
	C678.844055,458.715668 675.454895,454.654785 672.374756,450.371674 
	C670.395203,447.618805 668.870300,444.538940 667.156860,441.238708 
z"/>
<path fill="#939393" opacity="1.000000" stroke="none" 
	d="
M1218.970337,312.733398 
	C1220.117798,306.681671 1221.523560,300.377075 1223.231445,293.919403 
	C1222.098511,300.004395 1220.663574,306.242462 1218.970337,312.733398 
z"/>
<path fill="#939393" opacity="1.000000" stroke="none" 
	d="
M1223.721191,196.795425 
	C1221.792236,190.989731 1220.028564,184.763290 1218.521484,178.279022 
	C1219.470581,178.919037 1220.564941,179.727386 1220.788208,180.729752 
	C1221.943726,185.917419 1222.876221,191.154724 1223.721191,196.795425 
z"/>
<path fill="#939393" opacity="1.000000" stroke="none" 
	d="
M1135.280029,433.892761 
	C1140.354980,429.249847 1145.783813,424.592529 1151.562500,419.932007 
	C1146.486206,424.578674 1141.060059,429.228546 1135.280029,433.892761 
z"/>
<path fill="#989898" opacity="1.000000" stroke="none" 
	d="
M688.753357,381.796936 
	C684.795044,376.750732 680.827026,371.343811 676.854492,365.577698 
	C680.814514,370.624420 684.779053,376.030304 688.753357,381.796936 
z"/>
<path fill="#919191" opacity="1.000000" stroke="none" 
	d="
M653.054810,420.275146 
	C657.132202,425.655731 661.143677,431.404602 665.126587,437.513611 
	C663.272766,435.592896 661.313965,433.404633 659.654297,431.009094 
	C657.316345,427.634338 655.200012,424.106049 653.054810,420.275146 
z"/>
<path fill="#989898" opacity="1.000000" stroke="none" 
	d="
M743.881226,460.719238 
	C739.906006,455.646210 735.914795,450.212036 731.935181,444.421631 
	C735.919556,449.496307 739.892456,454.927216 743.881226,460.719238 
z"/>
<path fill="#9E9E9E" opacity="1.000000" stroke="none" 
	d="
M565.198242,258.739441 
	C568.285522,253.472214 571.715454,248.226334 575.480957,242.937653 
	C572.391296,248.183487 568.966064,253.472107 565.198242,258.739441 
z"/>
<path fill="#939393" opacity="1.000000" stroke="none" 
	d="
M1152.279907,419.896576 
	C1155.681030,415.927582 1159.436035,411.945038 1163.527832,407.930664 
	C1160.121094,411.893555 1156.377441,415.888306 1152.279907,419.896576 
z"/>
<path fill="#939393" opacity="1.000000" stroke="none" 
	d="
M1169.145996,402.688171 
	C1172.502930,398.090118 1176.197021,393.475159 1180.216797,388.808044 
	C1178.578979,391.727356 1176.764893,394.813995 1174.598877,397.629883 
	C1173.152832,399.509827 1171.205811,401.004303 1169.145996,402.688171 
z"/>
<path fill="#919191" opacity="1.000000" stroke="none" 
	d="
M636.151733,395.255157 
	C639.507385,399.610565 642.873657,404.328888 646.206177,409.406525 
	C642.835693,405.049927 639.498962,400.333984 636.151733,395.255157 
z"/>
<path fill="#9E9E9E" opacity="1.000000" stroke="none" 
	d="
M525.688843,157.839569 
	C522.631836,154.153107 519.689270,150.114670 516.765991,145.722183 
	C519.791199,149.407944 522.797241,153.447769 525.688843,157.839569 
z"/>
<path fill="#919191" opacity="1.000000" stroke="none" 
	d="
M598.349731,339.105896 
	C601.697449,343.226776 604.925964,347.697937 608.123169,352.527039 
	C604.804749,348.408691 601.517700,343.932404 598.349731,339.105896 
z"/>
<path fill="#9E9E9E" opacity="1.000000" stroke="none" 
	d="
M724.115723,34.826477 
	C726.235901,30.941576 728.662415,26.899555 731.435242,22.854292 
	C729.328369,26.790485 726.875183,30.729925 724.115723,34.826477 
z"/>
<path fill="#919191" opacity="1.000000" stroke="none" 
	d="
M682.289307,464.132080 
	C685.350830,467.836060 688.289185,471.888031 691.226990,476.293915 
	C688.206299,472.591949 685.186279,468.536011 682.289307,464.132080 
z"/>
<path fill="#919191" opacity="1.000000" stroke="none" 
	d="
M604.333740,304.131470 
	C601.550598,308.500000 598.767456,312.868561 595.635376,317.220459 
	C597.849915,313.003479 600.413391,308.803131 603.405823,304.326324 
	C604.001038,304.077057 604.167358,304.104248 604.333740,304.131470 
z"/>
<path fill="#9E9E9E" opacity="1.000000" stroke="none" 
	d="
M619.071289,182.819366 
	C621.212585,178.929779 623.662476,174.880310 626.462158,170.847931 
	C624.334534,174.796509 621.857178,178.728012 619.071289,182.819366 
z"/>
<path fill="#989898" opacity="1.000000" stroke="none" 
	d="
M604.632935,304.011017 
	C604.167358,304.104248 604.001038,304.077057 603.583496,304.022095 
	C606.036438,300.384369 608.740662,296.774506 611.798950,293.194641 
	C609.746094,296.779968 607.339111,300.335266 604.632935,304.011017 
z"/>
<path fill="#919191" opacity="1.000000" stroke="none" 
	d="
M608.269653,354.136108 
	C611.338989,357.847870 614.283630,361.904572 617.222290,366.316833 
	C614.192505,362.608643 611.168701,358.544830 608.269653,354.136108 
z"/>
<path fill="#9E9E9E" opacity="1.000000" stroke="none" 
	d="
M703.190552,63.759781 
	C704.947876,60.503044 707.047058,57.228527 709.483826,53.916557 
	C707.725098,57.166737 705.628723,60.454369 703.190552,63.759781 
z"/>
<path fill="#9E9E9E" opacity="1.000000" stroke="none" 
	d="
M732.209351,22.792961 
	C733.961060,19.497478 736.068115,16.216326 738.515320,12.919271 
	C736.758484,16.204676 734.661560,19.505983 732.209351,22.792961 
z"/>
<path fill="#939393" opacity="1.000000" stroke="none" 
	d="
M1225.835938,208.758942 
	C1224.817871,205.982330 1223.958862,202.787735 1223.365356,199.312012 
	C1224.418823,202.134247 1225.206909,205.237595 1225.835938,208.758942 
z"/>
<path fill="#9E9E9E" opacity="1.000000" stroke="none" 
	d="
M414.169312,87.246063 
	C416.511292,89.912048 418.848480,92.941643 421.191040,96.324745 
	C418.852417,93.655396 416.508453,90.632530 414.169312,87.246063 
z"/>
<path fill="#9E9E9E" opacity="1.000000" stroke="none" 
	d="
M598.196045,211.758301 
	C599.943481,208.484558 602.042725,205.207138 604.481934,201.903503 
	C602.730530,205.169739 600.639221,208.462189 598.196045,211.758301 
z"/>
<path fill="#9E9E9E" opacity="1.000000" stroke="none" 
	d="
M476.147217,173.277985 
	C478.454224,175.930725 480.804962,178.938553 483.179657,182.297226 
	C480.866058,179.643082 478.528473,176.638077 476.147217,173.277985 
z"/>
<path fill="#9E9E9E" opacity="1.000000" stroke="none" 
	d="
M571.702148,171.093826 
	C570.040466,174.080002 568.033142,177.092682 565.692993,180.140717 
	C567.358948,177.157471 569.357666,174.138901 571.702148,171.093826 
z"/>
<path fill="#9E9E9E" opacity="1.000000" stroke="none" 
	d="
M450.384369,138.145905 
	C452.690948,140.554596 454.903412,143.309937 457.137238,146.409943 
	C454.869110,144.000580 452.579681,141.246567 450.384369,138.145905 
z"/>
<path fill="#9E9E9E" opacity="1.000000" stroke="none" 
	d="
M462.865814,155.506302 
	C464.936737,157.735703 467.048767,160.324371 469.191528,163.264099 
	C467.117126,161.031967 465.012024,158.448776 462.865814,155.506302 
z"/>
<path fill="#939393" opacity="1.000000" stroke="none" 
	d="
M1128.230957,438.805969 
	C1129.977051,437.183441 1132.093140,435.563904 1134.558838,433.935364 
	C1132.806030,435.553894 1130.703491,437.181427 1128.230957,438.805969 
z"/>
<path fill="#9E9E9E" opacity="1.000000" stroke="none" 
	d="
M471.281006,166.199646 
	C472.820801,167.961075 474.397339,170.079605 476.023743,172.548859 
	C474.488373,170.785309 472.903076,168.671036 471.281006,166.199646 
z"/>
<path fill="#9E9E9E" opacity="1.000000" stroke="none" 
	d="
M409.238556,80.208420 
	C410.872223,81.938187 412.508209,84.027817 414.132935,86.472008 
	C412.494751,84.740471 410.867828,82.654381 409.238556,80.208420 
z"/>
<path fill="#9E9E9E" opacity="1.000000" stroke="none" 
	d="
M715.266296,46.889320 
	C716.272034,44.538853 717.626526,42.186768 719.321899,39.816620 
	C718.313538,42.161606 716.964294,44.524654 715.266296,46.889320 
z"/>
<path fill="#9E9E9E" opacity="1.000000" stroke="none" 
	d="
M516.611938,144.860870 
	C515.019531,143.119019 513.434326,141.018570 511.852386,138.566650 
	C513.443481,140.310898 515.031311,142.406570 516.611938,144.860870 
z"/>
<path fill="#939393" opacity="1.000000" stroke="none" 
	d="
M1186.247070,380.863373 
	C1187.296753,378.525085 1188.694580,376.184357 1190.436401,373.842529 
	C1189.385376,376.181274 1187.990356,378.521118 1186.247070,380.863373 
z"/>
<path fill="#9E9E9E" opacity="1.000000" stroke="none" 
	d="
M421.299988,97.169495 
	C422.949432,98.889885 424.572052,100.970222 426.178650,103.402451 
	C424.532806,101.679375 422.902985,99.604408 421.299988,97.169495 
z"/>
<path fill="#919191" opacity="1.000000" stroke="none" 
	d="
M617.284546,367.158997 
	C618.927979,368.914032 620.528198,371.031311 622.117981,373.503540 
	C620.485474,371.746094 618.863464,369.633698 617.284546,367.158997 
z"/>
<path fill="#989898" opacity="1.000000" stroke="none" 
	d="
M676.778809,364.789612 
	C675.142639,363.049896 673.510620,360.948639 671.887939,358.491699 
	C673.525879,360.233429 675.154419,362.330750 676.778809,364.789612 
z"/>
<path fill="#9E9E9E" opacity="1.000000" stroke="none" 
	d="
M457.236603,147.214935 
	C458.853363,148.958191 460.457581,151.071045 462.069092,153.531342 
	C460.458984,151.780716 458.841522,149.682632 457.236603,147.214935 
z"/>
<path fill="#989898" opacity="1.000000" stroke="none" 
	d="
M659.888245,340.728577 
	C658.228821,338.983185 656.585327,336.872742 654.948914,334.410156 
	C656.605408,336.159882 658.254822,338.261688 659.888245,340.728577 
z"/>
<path fill="#9E9E9E" opacity="1.000000" stroke="none" 
	d="
M530.860352,165.767822 
	C529.159485,164.012939 527.516846,161.895035 525.911072,159.424622 
	C527.604797,161.183014 529.261719,163.293915 530.860352,165.767822 
z"/>
<path fill="#939393" opacity="1.000000" stroke="none" 
	d="
M1181.332275,387.962402 
	C1182.382446,385.630463 1183.785156,383.286560 1185.527100,380.919800 
	C1184.472412,383.248138 1183.078735,385.599304 1181.332275,387.962402 
z"/>
<path fill="#9E9E9E" opacity="1.000000" stroke="none" 
	d="
M610.273193,194.913956 
	C611.272888,192.537567 612.622986,190.177780 614.315674,187.806168 
	C613.313354,190.173080 611.968445,192.551819 610.273193,194.913956 
z"/>
<path fill="#9E9E9E" opacity="1.000000" stroke="none" 
	d="
M559.729248,188.144897 
	C558.658264,190.429855 557.240051,192.745621 555.483765,195.082642 
	C556.557800,192.794495 557.969910,190.485107 559.729248,188.144897 
z"/>
<path fill="#919191" opacity="1.000000" stroke="none" 
	d="
M646.173096,410.215576 
	C647.860718,411.969513 649.496948,414.089142 651.100708,416.562164 
	C649.419312,414.804138 647.770569,412.692719 646.173096,410.215576 
z"/>
<path fill="#989898" opacity="1.000000" stroke="none" 
	d="
M671.871704,357.737854 
	C670.204712,355.985474 668.546326,353.871643 666.924316,351.404358 
	C668.600525,353.159363 670.240479,355.267883 671.871704,357.737854 
z"/>
<path fill="#989898" opacity="1.000000" stroke="none" 
	d="
M664.855774,347.757202 
	C663.186462,346.023468 661.543884,343.925415 659.902161,341.477295 
	C661.562866,343.215790 663.222717,345.304321 664.855774,347.757202 
z"/>
<path fill="#9E9E9E" opacity="1.000000" stroke="none" 
	d="
M564.654053,181.035614 
	C563.710266,183.047394 562.419678,185.093506 560.799561,187.175522 
	C561.749146,185.164246 563.028137,183.117096 564.654053,181.035614 
z"/>
<path fill="#9E9E9E" opacity="1.000000" stroke="none" 
	d="
M576.652588,164.037781 
	C575.693115,166.042679 574.389160,168.089539 572.753906,170.168274 
	C573.717834,168.160004 575.013000,166.119858 576.652588,164.037781 
z"/>
<path fill="#919191" opacity="1.000000" stroke="none" 
	d="
M593.180786,331.227905 
	C594.803894,333.002960 596.415955,335.143646 598.017700,337.637695 
	C596.394836,335.858521 594.782288,333.726044 593.180786,331.227905 
z"/>
<path fill="#9E9E9E" opacity="1.000000" stroke="none" 
	d="
M397.146271,63.263878 
	C398.784760,65.002731 400.440552,67.099487 402.085785,69.548767 
	C400.437988,67.808121 398.800781,65.714951 397.146271,63.263878 
z"/>
<path fill="#989898" opacity="1.000000" stroke="none" 
	d="
M731.941650,443.692383 
	C730.277954,441.943420 728.622070,439.832611 726.977783,437.367004 
	C728.642700,439.118256 730.296143,441.224396 731.941650,443.692383 
z"/>
<path fill="#919191" opacity="1.000000" stroke="none" 
	d="
M756.108398,483.690857 
	C755.798157,481.947266 755.823853,480.351196 755.889771,478.419434 
	C757.129944,479.416962 758.329956,480.750153 759.529968,482.083374 
	C758.501465,482.668365 757.472961,483.253357 756.108398,483.690857 
z"/>
<path fill="#9E9E9E" opacity="1.000000" stroke="none" 
	d="
M449.733093,46.808216 
	C448.113922,45.060558 446.505829,42.950836 444.897278,40.492313 
	C446.512634,42.244396 448.128418,44.345272 449.733093,46.808216 
z"/>
<path fill="#9E9E9E" opacity="1.000000" stroke="none" 
	d="
M605.224609,201.806610 
	C606.324036,199.518066 607.768738,197.216217 609.555786,194.918213 
	C608.455383,197.212479 607.012634,199.502899 605.224609,201.806610 
z"/>
<path fill="#9E9E9E" opacity="1.000000" stroke="none" 
	d="
M511.790466,137.778748 
	C510.158295,136.028061 508.535095,133.915375 506.921204,131.451752 
	C508.553497,133.206146 510.176453,135.311447 511.790466,137.778748 
z"/>
<path fill="#9E9E9E" opacity="1.000000" stroke="none" 
	d="
M593.151001,218.661041 
	C594.241760,216.423798 595.670349,214.156067 597.435730,211.869492 
	C596.344666,214.110611 594.916748,216.370590 593.151001,218.661041 
z"/>
<path fill="#9E9E9E" opacity="1.000000" stroke="none" 
	d="
M710.213501,53.775970 
	C711.320251,51.519638 712.766785,49.226238 714.553528,46.926498 
	C713.446899,49.193073 712.000183,51.465984 710.213501,53.775970 
z"/>
<path fill="#919191" opacity="1.000000" stroke="none" 
	d="
M691.320435,477.148285 
	C692.952637,478.803986 694.544922,480.825500 696.197937,483.172089 
	C694.599304,481.502808 692.940002,479.508484 691.320435,477.148285 
z"/>
<path fill="#9E9E9E" opacity="1.000000" stroke="none" 
	d="
M404.193390,73.218300 
	C405.852692,74.933113 407.500732,77.005463 409.149170,79.424973 
	C407.493774,77.706703 405.837952,75.641273 404.193390,73.218300 
z"/>
<path fill="#9E9E9E" opacity="1.000000" stroke="none" 
	d="
M470.599243,76.875732 
	C468.960663,75.376434 467.434875,73.542580 465.950134,71.360260 
	C467.564789,72.854935 469.138428,74.698059 470.599243,76.875732 
z"/>
<path fill="#9E9E9E" opacity="1.000000" stroke="none" 
	d="
M699.224854,69.805328 
	C699.959961,67.822975 701.037476,65.861488 702.454712,63.881218 
	C701.718750,65.850357 700.643066,67.838280 699.224854,69.805328 
z"/>
<path fill="#919191" opacity="1.000000" stroke="none" 
	d="
M748.848145,467.748413 
	C747.217834,465.999329 745.567810,463.893463 743.925354,461.434357 
	C745.564758,463.184601 747.196594,465.288116 748.848145,467.748413 
z"/>
<path fill="#919191" opacity="1.000000" stroke="none" 
	d="
M627.251892,382.159180 
	C628.655823,383.539062 629.959167,385.274811 631.229675,387.356750 
	C629.848328,385.973602 628.499817,384.244324 627.251892,382.159180 
z"/>
<path fill="#919191" opacity="1.000000" stroke="none" 
	d="
M622.421997,375.070129 
	C624.045166,376.599945 625.531128,378.461548 627.000854,380.670441 
	C625.417969,379.145782 623.851379,377.273834 622.421997,375.070129 
z"/>
<path fill="#919191" opacity="1.000000" stroke="none" 
	d="
M590.869873,322.126099 
	C591.220642,323.757812 591.206299,325.496918 591.116577,327.593201 
	C587.793762,326.332703 588.150208,324.376862 590.869873,322.126099 
z"/>
<path fill="#919191" opacity="1.000000" stroke="none" 
	d="
M632.102966,389.248596 
	C633.486206,390.642761 634.804443,392.399902 636.114990,394.509460 
	C634.750854,393.111755 633.394409,391.361633 632.102966,389.248596 
z"/>
<path fill="#919191" opacity="1.000000" stroke="none" 
	d="
M752.703491,472.879883 
	C751.349548,471.751984 750.107178,470.281891 748.881958,468.469879 
	C750.204468,469.597870 751.509705,471.067749 752.703491,472.879883 
z"/>
<path fill="#939393" opacity="1.000000" stroke="none" 
	d="
M1164.230713,407.827881 
	C1164.633911,406.849243 1165.375000,405.838409 1166.446411,404.833435 
	C1166.040649,405.824768 1165.304565,406.810211 1164.230713,407.827881 
z"/>
<path fill="#919191" opacity="1.000000" stroke="none" 
	d="
M755.911377,477.725189 
	C754.866333,476.981659 753.817627,475.892517 752.836975,474.459351 
	C753.905884,475.203400 754.906799,476.291504 755.911377,477.725189 
z"/>
<path fill="#9E9E9E" opacity="1.000000" stroke="none" 
	d="
M483.376953,183.113983 
	C484.330933,183.588974 485.282166,184.391083 486.176208,185.518753 
	C485.204041,185.043243 484.289124,184.242172 483.376953,183.113983 
z"/>
<path fill="#919191" opacity="1.000000" stroke="none" 
	d="
M594.854736,317.217834 
	C594.682617,318.195435 594.182007,319.115723 593.348389,320.024536 
	C593.518982,319.062225 594.022644,318.111389 594.854736,317.217834 
z"/>
<path fill="#9E9E9E" opacity="1.000000" stroke="none" 
	d="
M402.100922,70.274094 
	C402.806915,70.662201 403.514008,71.398453 404.178894,72.469360 
	C403.458496,72.076752 402.780243,71.349495 402.100922,70.274094 
z"/>
<path fill="#9E9E9E" opacity="1.000000" stroke="none" 
	d="
M720.114258,39.665070 
	C720.145386,39.021217 720.499146,38.400909 721.142822,37.769539 
	C721.100708,38.401855 720.768860,39.045238 720.114258,39.665070 
z"/>
<path fill="#939393" opacity="1.000000" stroke="none" 
	d="
M1167.185303,404.805969 
	C1167.270386,404.131561 1167.687256,403.481171 1168.412598,402.824249 
	C1168.319824,403.488495 1167.918457,404.159241 1167.185303,404.805969 
z"/>
<path fill="#939393" opacity="1.000000" stroke="none" 
	d="
M1177.963135,98.732918 
	C1177.244141,98.597366 1176.584229,98.127693 1175.955811,97.336082 
	C1176.665527,97.475700 1177.343872,97.937248 1177.963135,98.732918 
z"/>
<path fill="#9E9E9E" opacity="1.000000" stroke="none" 
	d="
M615.121521,187.685867 
	C615.129822,187.035080 615.459900,186.416748 616.072266,185.768982 
	C616.050842,186.399155 615.747070,187.058746 615.121521,187.685867 
z"/>
<path fill="#9E9E9E" opacity="1.000000" stroke="none" 
	d="
M532.656372,167.874420 
	C531.955872,167.729523 531.349792,167.270828 530.798950,166.508759 
	C531.486328,166.657135 532.118652,167.108871 532.656372,167.874420 
z"/>
<path fill="#919191" opacity="1.000000" stroke="none" 
	d="
M591.349426,329.091064 
	C592.030762,329.248291 592.614990,329.729065 593.168457,330.511475 
	C592.509277,330.346924 591.880798,329.880768 591.349426,329.091064 
z"/>
<path fill="#919191" opacity="1.000000" stroke="none" 
	d="
M651.302612,418.112701 
	C652.012817,418.280304 652.623352,418.771759 653.167236,419.571106 
	C652.468079,419.398193 651.835571,418.917389 651.302612,418.112701 
z"/>
<path fill="#9E9E9E" opacity="1.000000" stroke="none" 
	d="
M469.338928,164.123016 
	C469.964661,164.257645 470.558594,164.714554 471.148987,165.472168 
	C470.532684,165.330353 469.919922,164.887817 469.338928,164.123016 
z"/>
<path fill="#919191" opacity="1.000000" stroke="none" 
	d="
M665.400391,439.081665 
	C666.067627,439.249390 666.636414,439.741516 667.166016,440.533203 
	C666.518494,440.357178 665.910217,439.881622 665.400391,439.081665 
z"/>
<path fill="#939393" opacity="1.000000" stroke="none" 
	d="
M1144.889404,65.747299 
	C1144.235840,65.654953 1143.578613,65.226700 1142.898926,64.485886 
	C1143.546265,64.586014 1144.216064,64.998695 1144.889404,65.747299 
z"/>
<path fill="#989898" opacity="1.000000" stroke="none" 
	d="
M666.669128,349.880493 
	C665.983582,349.727051 665.389954,349.250549 664.836182,348.471375 
	C665.504333,348.631592 666.132751,349.094543 666.669128,349.880493 
z"/>
<path fill="#010101" opacity="1.000000" stroke="none" 
	d="
M1051.303833,67.562317 
	C1051.678101,67.603355 1052.052490,67.644394 1052.915283,68.021805 
	C1056.719238,69.719147 1060.034424,71.080124 1063.349731,72.441101 
	C1063.714233,72.496231 1064.078735,72.551376 1064.882080,72.981888 
	C1067.282715,74.148438 1069.244629,74.939606 1071.206421,75.730774 
	C1071.206421,75.730766 1071.184204,75.807579 1071.180908,76.170151 
	C1072.226196,76.857506 1073.274780,77.182274 1074.323364,77.507050 
	C1074.323364,77.507050 1074.779175,77.614578 1074.992798,78.063759 
	C1075.919067,78.829224 1076.631592,79.145508 1077.344238,79.461792 
	C1077.735596,79.542381 1078.126831,79.622971 1078.846436,80.162079 
	C1080.576660,81.171257 1081.978638,81.721924 1083.380615,82.272598 
	C1083.380615,82.272598 1083.811768,82.511505 1083.988525,83.040466 
	C1085.205078,83.915329 1086.244995,84.261223 1087.284790,84.607117 
	C1088.297974,85.350273 1089.311035,86.093422 1090.620117,87.351158 
	C1092.062988,88.383430 1093.209961,88.901131 1094.357056,89.418839 
	C1094.357056,89.418846 1094.764771,89.606583 1094.922363,90.105103 
	C1095.813843,90.937286 1096.547485,91.270935 1097.281250,91.604591 
	C1097.281250,91.604599 1097.687378,91.726479 1097.880981,92.188194 
	C1100.150513,93.958267 1102.226562,95.266624 1104.302490,96.574997 
	C1118.409546,108.431511 1131.633057,121.151619 1142.217407,136.343613 
	C1150.731323,148.563828 1158.253662,161.349091 1162.778931,175.663132 
	C1165.840088,185.346115 1169.237305,194.959381 1171.591919,204.816986 
	C1173.312988,212.022507 1174.092529,219.555069 1174.380737,226.977219 
	C1174.832397,238.608185 1174.864380,250.281998 1174.431152,261.913727 
	C1173.944458,274.981384 1171.480957,287.756500 1168.109741,300.451080 
	C1164.641846,313.510345 1159.729980,325.838806 1153.470947,337.755798 
	C1146.697388,350.652557 1138.408569,362.442200 1128.378174,372.954926 
	C1122.430664,379.188538 1116.039429,384.998718 1109.226074,391.097382 
	C1108.114380,391.836456 1107.624390,392.477417 1107.134277,393.118347 
	C1107.134277,393.118347 1107.005981,393.020996 1106.710205,393.040100 
	C1105.333374,394.089386 1104.252319,395.119568 1103.171265,396.149780 
	C1103.171265,396.149780 1103.062378,396.026123 1102.740723,396.047058 
	C1099.344971,398.439209 1096.270996,400.810394 1093.197021,403.181610 
	C1093.197021,403.181610 1092.799683,403.427338 1092.261108,403.369110 
	C1091.252075,403.951111 1090.781616,404.591370 1090.311157,405.231567 
	C1090.311157,405.231567 1090.256836,405.258240 1089.886719,405.218536 
	C1088.359497,406.135498 1087.202393,407.092163 1086.045410,408.048828 
	C1086.045410,408.048828 1085.677246,408.257751 1085.101196,408.178528 
	C1082.427002,409.463074 1080.328735,410.826874 1078.230591,412.190643 
	C1078.230591,412.190643 1078.114136,412.116638 1077.786133,412.103027 
	C1076.006836,413.095490 1074.555664,414.101532 1073.104370,415.107605 
	C1072.713867,415.211426 1072.323242,415.315247 1071.294922,415.316101 
	C1070.132202,415.836731 1069.607544,416.460297 1069.082764,417.083862 
	C1069.082764,417.083862 1068.752808,417.368347 1068.198242,417.303833 
	C1065.761108,418.219543 1063.878784,419.199738 1061.996338,420.179932 
	C1061.618286,420.241211 1061.240356,420.302429 1060.216309,420.230347 
	C1058.715210,420.818054 1057.860107,421.539093 1057.004883,422.260132 
	C1056.643921,422.356079 1056.282959,422.452057 1055.306885,422.383728 
	C1052.793213,423.196533 1050.894775,424.173615 1048.996216,425.150696 
	C1048.608276,425.192535 1048.220337,425.234344 1047.192871,425.145508 
	C1045.367554,425.761688 1044.181641,426.508545 1042.995850,427.255371 
	C1042.324585,427.315735 1041.653320,427.376099 1040.297241,427.279602 
	C1038.303833,427.886932 1036.995239,428.651123 1035.686646,429.415314 
	C1035.015991,429.544922 1034.345337,429.674530 1033.077637,429.595856 
	C1029.985962,430.305145 1027.491455,431.222687 1024.996948,432.140259 
	C1023.689453,432.214600 1022.381897,432.288940 1020.296997,432.225525 
	C1017.679749,432.846222 1015.839905,433.604706 1014.000000,434.363159 
	C1012.716797,434.456848 1011.433533,434.550537 1009.337891,434.435364 
	C1001.348694,435.230652 994.171936,436.234863 986.995178,437.239075 
	C986.604797,437.262573 986.214355,437.286072 985.086914,437.096222 
	C947.917603,436.989044 911.485291,437.098236 875.053040,437.192047 
	C873.313110,437.196533 871.572754,437.064545 869.832642,436.996124 
	C869.799805,434.831757 869.738342,432.667389 869.738281,430.503021 
	C869.733704,306.714081 869.734192,182.925110 869.734192,59.136158 
	C869.734192,57.350933 869.734131,55.565712 869.734131,53.611622 
	C909.516113,53.611622 948.787537,53.611622 988.727661,53.980812 
	C992.694397,54.761997 995.992371,55.173988 999.290283,55.585983 
	C1001.570923,55.646198 1003.851624,55.706413 1006.809082,56.072662 
	C1011.117371,56.975868 1014.748840,57.573044 1018.380371,58.170216 
	C1019.353577,58.275658 1020.326721,58.381104 1021.716309,58.967606 
	C1023.869873,59.785442 1025.607178,60.122215 1027.344360,60.458992 
	C1028.638428,60.533928 1029.932617,60.608860 1031.750488,61.101974 
	C1033.590210,61.918873 1034.906128,62.317589 1036.222046,62.716301 
	C1036.617310,62.754528 1037.012695,62.792763 1037.929932,63.156830 
	C1040.755249,64.114563 1043.058594,64.746468 1045.362061,65.378357 
	C1046.027466,65.448555 1046.692871,65.518761 1047.744629,66.048965 
	C1049.188721,66.860085 1050.246216,67.211197 1051.303833,67.562317 
z"/>
<path fill="#757575" opacity="1.000000" stroke="none" 
	d="
M869.630859,437.255920 
	C871.572754,437.064545 873.313110,437.196533 875.053040,437.192047 
	C911.485291,437.098236 947.917603,436.989044 984.793579,437.096100 
	C979.793762,438.079285 974.355103,439.473663 968.905945,439.516418 
	C936.953064,439.767090 904.997559,439.726379 873.043335,439.649231 
	C871.836853,439.646332 870.633728,438.258270 869.630859,437.255920 
z"/>
<path fill="#757575" opacity="1.000000" stroke="none" 
	d="
M987.302307,437.506897 
	C994.171936,436.234863 1001.348694,435.230652 1008.952637,434.439728 
	C1002.122986,435.693573 994.866211,436.734161 987.302307,437.506897 
z"/>
<path fill="#757575" opacity="1.000000" stroke="none" 
	d="
M1018.152466,57.921043 
	C1014.748840,57.573044 1011.117371,56.975868 1007.238403,56.111427 
	C1010.635498,56.453392 1014.280029,57.062630 1018.152466,57.921043 
z"/>
<path fill="#757575" opacity="1.000000" stroke="none" 
	d="
M999.159119,55.249069 
	C995.992371,55.173988 992.694397,54.761997 989.194702,54.014412 
	C992.337891,54.089928 995.682922,54.501041 999.159119,55.249069 
z"/>
<path fill="#757575" opacity="1.000000" stroke="none" 
	d="
M1063.242188,72.118393 
	C1060.034424,71.080124 1056.719238,69.719147 1053.195068,68.061722 
	C1056.368896,69.108742 1059.751709,70.452209 1063.242188,72.118393 
z"/>
<path fill="#757575" opacity="1.000000" stroke="none" 
	d="
M1093.557861,403.214783 
	C1096.270996,400.810394 1099.344971,398.439209 1102.779785,396.119507 
	C1100.066650,398.529968 1096.992676,400.888977 1093.557861,403.214783 
z"/>
<path fill="#757575" opacity="1.000000" stroke="none" 
	d="
M1025.236450,432.372375 
	C1027.491455,431.222687 1029.985962,430.305145 1032.735596,429.621368 
	C1030.485718,430.771606 1027.980835,431.688049 1025.236450,432.372375 
z"/>
<path fill="#757575" opacity="1.000000" stroke="none" 
	d="
M1045.201660,65.097153 
	C1043.058594,64.746468 1040.755249,64.114563 1038.223877,63.204987 
	C1040.344360,63.556854 1042.692871,64.186394 1045.201660,65.097153 
z"/>
<path fill="#757575" opacity="1.000000" stroke="none" 
	d="
M1078.591919,412.237335 
	C1080.328735,410.826874 1082.427002,409.463074 1084.896118,408.230682 
	C1083.162476,409.669403 1081.057861,410.976715 1078.591919,412.237335 
z"/>
<path fill="#757575" opacity="1.000000" stroke="none" 
	d="
M1014.234253,434.606323 
	C1015.839905,433.604706 1017.679749,432.846222 1019.904907,432.246948 
	C1018.349609,433.220612 1016.409058,434.035065 1014.234253,434.606323 
z"/>
<path fill="#757575" opacity="1.000000" stroke="none" 
	d="
M1104.239746,96.247147 
	C1102.226562,95.266624 1100.150513,93.958267 1098.061768,92.298935 
	C1100.091553,93.271744 1102.134277,94.595520 1104.239746,96.247147 
z"/>
<path fill="#757575" opacity="1.000000" stroke="none" 
	d="
M1062.219727,420.377594 
	C1063.878784,419.199738 1065.761108,418.219543 1068.004395,417.403503 
	C1066.391235,418.570190 1064.417114,419.572723 1062.219727,420.377594 
z"/>
<path fill="#757575" opacity="1.000000" stroke="none" 
	d="
M1049.231201,425.346680 
	C1050.894775,424.173615 1052.793213,423.196533 1055.026855,422.414093 
	C1053.396851,423.586731 1051.431519,424.564728 1049.231201,425.346680 
z"/>
<path fill="#757575" opacity="1.000000" stroke="none" 
	d="
M1027.247314,60.147987 
	C1025.607178,60.122215 1023.869873,59.785442 1022.074829,59.049080 
	C1023.728088,59.045322 1025.439087,59.441151 1027.247314,60.147987 
z"/>
<path fill="#757575" opacity="1.000000" stroke="none" 
	d="
M1071.189453,75.392944 
	C1069.244629,74.939606 1067.282715,74.148438 1065.153809,73.032425 
	C1067.048706,73.490105 1069.110596,74.272614 1071.189453,75.392944 
z"/>
<path fill="#757575" opacity="1.000000" stroke="none" 
	d="
M1035.979004,429.622803 
	C1036.995239,428.651123 1038.303833,427.886932 1039.959717,427.284363 
	C1038.961914,428.240723 1037.616577,429.035522 1035.979004,429.622803 
z"/>
<path fill="#757575" opacity="1.000000" stroke="none" 
	d="
M1073.459961,415.161194 
	C1074.555664,414.101532 1076.006836,413.095490 1077.822998,412.161377 
	C1076.730347,413.227142 1075.273071,414.220978 1073.459961,415.161194 
z"/>
<path fill="#757575" opacity="1.000000" stroke="none" 
	d="
M1043.195801,427.477844 
	C1044.181641,426.508545 1045.367554,425.761688 1046.901123,425.169250 
	C1045.964600,426.115814 1044.680298,426.908051 1043.195801,427.477844 
z"/>
<path fill="#757575" opacity="1.000000" stroke="none" 
	d="
M1036.153687,62.412315 
	C1034.906128,62.317589 1033.590210,61.918873 1032.134033,61.171135 
	C1033.357666,61.250851 1034.721558,61.679585 1036.153687,62.412315 
z"/>
<path fill="#757575" opacity="1.000000" stroke="none" 
	d="
M1086.385498,408.075897 
	C1087.202393,407.092163 1088.359497,406.135498 1089.872314,405.245300 
	C1089.060791,406.242188 1087.893188,407.172577 1086.385498,408.075897 
z"/>
<path fill="#757575" opacity="1.000000" stroke="none" 
	d="
M1103.514648,396.216248 
	C1104.252319,395.119568 1105.333374,394.089386 1106.767334,393.097137 
	C1106.032715,394.184265 1104.945312,395.233490 1103.514648,396.216248 
z"/>
<path fill="#757575" opacity="1.000000" stroke="none" 
	d="
M1051.268188,67.259796 
	C1050.246216,67.211197 1049.188721,66.860085 1048.068359,66.135315 
	C1049.081299,66.160194 1050.156860,66.558739 1051.268188,67.259796 
z"/>
<path fill="#757575" opacity="1.000000" stroke="none" 
	d="
M1083.249756,81.978210 
	C1081.978638,81.721924 1080.576660,81.171257 1079.126831,80.267975 
	C1080.425659,80.504852 1081.772217,81.094330 1083.249756,81.978210 
z"/>
<path fill="#757575" opacity="1.000000" stroke="none" 
	d="
M1057.172852,422.479248 
	C1057.860107,421.539093 1058.715210,420.818054 1059.929443,420.250488 
	C1059.305908,421.168732 1058.323486,421.933563 1057.172852,422.479248 
z"/>
<path fill="#757575" opacity="1.000000" stroke="none" 
	d="
M1094.270020,89.108780 
	C1093.209961,88.901131 1092.062988,88.383430 1090.902344,87.503525 
	C1091.986694,87.693779 1093.084839,88.246254 1094.270020,89.108780 
z"/>
<path fill="#757575" opacity="1.000000" stroke="none" 
	d="
M1087.196777,84.293686 
	C1086.244995,84.261223 1085.205078,83.915329 1084.180908,83.194542 
	C1085.167236,83.206520 1086.138062,83.593384 1087.196777,84.293686 
z"/>
<path fill="#757575" opacity="1.000000" stroke="none" 
	d="
M1074.222168,77.206490 
	C1073.274780,77.182274 1072.226196,76.857506 1071.219971,76.161835 
	C1072.215332,76.162598 1073.168091,76.534264 1074.222168,77.206490 
z"/>
<path fill="#757575" opacity="1.000000" stroke="none" 
	d="
M1107.443604,393.150269 
	C1107.624390,392.477417 1108.114380,391.836456 1108.949341,391.294342 
	C1108.780518,391.989532 1108.266846,392.585846 1107.443604,393.150269 
z"/>
<path fill="#757575" opacity="1.000000" stroke="none" 
	d="
M1097.214600,91.303741 
	C1096.547485,91.270935 1095.813843,90.937286 1095.097412,90.245728 
	C1095.792480,90.259514 1096.470337,90.631210 1097.214600,91.303741 
z"/>
<path fill="#757575" opacity="1.000000" stroke="none" 
	d="
M1069.389404,417.134094 
	C1069.607544,416.460297 1070.132202,415.836731 1070.992676,415.353607 
	C1070.784180,416.057495 1070.240112,416.620941 1069.389404,417.134094 
z"/>
<path fill="#757575" opacity="1.000000" stroke="none" 
	d="
M1077.314087,79.145126 
	C1076.631592,79.145508 1075.919067,78.829224 1075.207153,78.158081 
	C1075.899902,78.144966 1076.591919,78.486717 1077.314087,79.145126 
z"/>
<path fill="#757575" opacity="1.000000" stroke="none" 
	d="
M1090.604004,405.279572 
	C1090.781616,404.591370 1091.252075,403.951111 1092.046021,403.460175 
	C1091.878662,404.182159 1091.387817,404.754852 1090.604004,405.279572 
z"/>
</svg>