<svg width="180" height="23" viewBox="0 0 180 23" fill="none" xmlns="http://www.w3.org/2000/svg">
<path d="M6.22525 11.6858C6.19978 11.5952 6.26629 11.5046 6.3611 11.5046H7.99275C8.07765 11.5046 8.14416 11.4296 8.13284 11.3461L7.89369 9.42142C7.8852 9.35065 7.82435 9.29688 7.75359 9.29688H0.141617C0.0383124 9.29688 -0.0296138 9.40302 0.0128401 9.49642L5.87147 22.4628C5.89411 22.5138 5.94506 22.5463 6.00025 22.5463H9.27061C9.31731 22.5463 9.35127 22.5011 9.33853 22.4558L6.22525 11.6858Z" fill="#FF319F"/>
<path d="M16.0171 7.23103C16.0128 7.15036 16.0765 7.08102 16.1586 7.08102H18.4242C18.4978 7.08102 18.5586 7.02441 18.5657 6.95223L18.7299 5.03317C18.7369 4.95108 18.6718 4.87891 18.5884 4.87891H9.13813C9.05464 4.87891 8.98954 4.95108 8.99662 5.03458L10.7089 22.4151C10.716 22.4873 10.7769 22.5425 10.8504 22.5425L16.7161 22.5368C16.7968 22.5368 16.8619 22.4689 16.8577 22.3868L16.0185 7.22962L16.0171 7.23103Z" fill="#FF319F"/>
<path d="M20.9106 0.460938H32.2005C32.2939 0.460938 32.3618 0.550098 32.3363 0.640673L26.2456 22.4396C26.2286 22.5005 26.1735 22.5429 26.1098 22.5429H18.4497C18.3648 22.5429 18.2997 22.4693 18.3096 22.3858L20.7705 0.586894C20.779 0.514717 20.8384 0.460938 20.9106 0.460938Z" fill="#FF319F"/>
<path d="M93.764 22.817C87.5601 22.817 84.6562 19.235 84.6562 13.8868C84.6562 7.82395 88.4219 4.57031 93.9565 4.57031C95.5004 4.57031 96.7429 4.67504 98.4297 4.98781C98.4948 4.99913 98.5429 5.05432 98.5457 5.11943L98.8132 10.227C98.816 10.2766 98.7679 10.3134 98.7212 10.2978C97.7122 9.97228 96.4457 9.65951 94.4291 9.65951C92.4126 9.65951 90.079 10.8865 90.079 13.6887C90.079 16.6862 91.9229 17.6825 93.8758 17.6825C94.5636 17.6825 94.9216 17.599 94.9216 17.599C94.957 17.5948 94.9824 17.565 94.9824 17.5282V15.9672C94.9824 15.9276 94.9527 15.8965 94.9131 15.8965H92.5088C92.431 15.8965 92.3673 15.8328 92.3673 15.7549V11.621C92.3673 11.5432 92.431 11.4795 92.5088 11.4795H98.8429C98.9179 11.4795 98.9788 11.5375 98.9844 11.6125L99.6552 22.1518C99.6594 22.2254 99.6085 22.2905 99.5349 22.3004C97.79 22.5594 95.915 22.817 93.764 22.8156V22.817Z" fill="#FF319F"/>
<path d="M65.316 4.49219C61.0876 4.49219 58.4385 6.73393 57.8116 10.6556L55.9394 22.3865C55.9253 22.4728 55.9918 22.5506 56.0795 22.5506H61.2787C61.348 22.5506 61.4075 22.4997 61.4188 22.4318L62.0995 18.162C62.1051 18.128 62.1348 18.1025 62.1688 18.1025H64.0948C64.1387 18.1025 64.1712 18.1422 64.1641 18.1846L63.4934 22.3879C63.4792 22.4742 63.5457 22.5521 63.6335 22.5521H68.8241C68.8935 22.5521 68.9529 22.5011 68.9642 22.4332L70.8435 10.657C71.469 6.73393 69.543 4.4936 65.3146 4.4936L65.316 4.49219ZM63.2698 10.8367C63.3915 10.0696 63.8188 9.6479 64.4712 9.6479C64.7726 9.6479 65.0033 9.73989 65.1576 9.92104C65.3401 10.1362 65.3995 10.4588 65.3316 10.882L64.8943 13.6276C64.8887 13.6615 64.859 13.687 64.825 13.687H62.899C62.8551 13.687 62.8226 13.6474 62.8297 13.6049L63.2712 10.8367H63.2698Z" fill="#FF319F"/>
<path d="M51.5642 4.93166L50.6585 12.5046C50.6543 12.54 50.6246 12.5669 50.5878 12.5669H50.4264C50.3953 12.5669 50.367 12.5456 50.3585 12.5159L48.2188 4.90477C48.2019 4.84392 48.1467 4.80146 48.083 4.80146L45.5075 4.79297C45.4508 4.79297 45.3999 4.82693 45.3773 4.87788L42.0715 12.5414C42.0602 12.5669 42.0347 12.5839 42.0064 12.5839H41.8946C41.855 12.5839 41.8239 12.5527 41.8239 12.5131V4.93449C41.8239 4.85665 41.7602 4.79297 41.6824 4.79297H36.5907C36.5129 4.79297 36.4492 4.85665 36.4492 4.93449V22.3971C36.4492 22.475 36.5129 22.5386 36.5907 22.5386H41.7899C41.8451 22.5386 41.896 22.5061 41.9187 22.4551L45.8782 13.7033C45.8895 13.6778 45.915 13.6623 45.9433 13.6623H46.2362C46.2674 13.6623 46.2957 13.6835 46.3042 13.7132L48.884 22.4382C48.9023 22.4976 48.9561 22.5401 49.0198 22.5401L54.2487 22.5514C54.318 22.5514 54.3775 22.5004 54.3888 22.4325L57.1667 4.9727C57.1808 4.88637 57.1143 4.80854 57.0266 4.80854H51.7029C51.6307 4.80854 51.5713 4.86232 51.5628 4.93308L51.5642 4.93166Z" fill="#FF319F"/>
<path d="M80.1357 4.9551L77.7059 13.6305C77.6974 13.6617 77.6691 13.6829 77.638 13.6829H77.4102C77.3705 13.6829 77.3394 13.6517 77.3394 13.6121L77.3323 4.95793C77.3323 4.88009 77.2686 4.81641 77.1908 4.81641H71.7044C71.6223 4.81641 71.5572 4.88575 71.5628 4.96642L72.2209 15.0825C72.2435 15.425 72.3044 15.7647 72.4275 16.0845C72.9327 17.4021 74.2063 18.3093 75.6639 18.3093H76.3488C76.3729 18.3093 76.3898 18.3319 76.3828 18.3546L75.2577 22.3696C75.2323 22.4602 75.3002 22.5494 75.3936 22.5494H80.7315C80.7951 22.5494 80.8503 22.5069 80.8673 22.446L85.7453 5.03152C85.7707 4.94095 85.7028 4.85179 85.6094 4.85179H80.2715C80.2079 4.85179 80.1527 4.89424 80.1357 4.9551Z" fill="#FF319F"/>
<path d="M111.42 14.4623C111.413 14.4467 111.419 14.4283 111.433 14.4184C112.479 13.7674 113.215 12.3776 113.21 10.1203C113.21 10.0835 113.21 10.0453 113.21 10.0085C113.21 10.0029 113.21 9.9972 113.21 9.99154C113.21 9.98729 113.21 9.98305 113.21 9.9788C113.206 9.73679 113.191 9.49904 113.161 9.26694C112.734 5.80668 110.618 4.80469 107.121 4.80469H100.111C100.029 4.80469 99.9634 4.87403 99.9691 4.95612L101.151 22.4287C101.156 22.5023 101.217 22.5603 101.292 22.5603H106.537C106.619 22.5603 106.684 22.4909 106.678 22.4088L106.208 15.9554C106.206 15.9143 106.238 15.8789 106.279 15.8789H106.783C106.814 15.8789 106.841 15.8987 106.851 15.9285L108.931 22.4612C108.949 22.5192 109.005 22.5603 109.066 22.5603H114.876C114.979 22.5603 115.047 22.4541 115.005 22.3607L111.42 14.4623ZM107.445 11.3488C107.212 11.5978 106.864 11.7252 106.412 11.7252H105.863C105.826 11.7252 105.795 11.6969 105.792 11.6587L105.597 8.76028C105.594 8.71924 105.627 8.68527 105.668 8.68527H106.225C107.166 8.68527 107.683 9.03625 107.765 10.1967C107.8 10.6977 107.691 11.0855 107.445 11.3488Z" fill="#FF319F"/>
<path d="M122.951 4.48047C117.351 4.48047 113.703 8.05819 113.703 13.5522C113.703 19.0461 117.353 22.6253 122.951 22.6253C128.549 22.6253 132.251 19.0221 132.251 13.5522C132.251 8.08225 128.578 4.48047 122.951 4.48047ZM122.976 16.7775C121.152 16.7775 119.911 15.467 119.911 13.5507C119.911 11.6345 121.152 10.2999 122.976 10.2999C124.801 10.2999 126.069 11.6104 126.069 13.5507C126.069 15.491 124.801 16.7775 122.976 16.7775Z" fill="#FF319F"/>
<path d="M171.322 4.84766H165.364C165.286 4.84766 165.223 4.91134 165.223 4.98918V22.4221C165.223 22.4999 165.286 22.5636 165.364 22.5636H171.322C176.762 22.5636 180.001 19.2902 180.001 13.7042C180.001 8.11969 176.762 4.84766 171.322 4.84766ZM171.295 17.7207H170.936C170.896 17.7207 170.865 17.6895 170.865 17.6499V9.76137C170.865 9.72174 170.896 9.6906 170.936 9.6906H171.295C173.016 9.6906 173.929 11.2148 173.929 13.7042C173.929 16.195 173.017 17.7193 171.295 17.7193V17.7207Z" fill="#FF319F"/>
<path d="M142.269 4.81782C142.2 4.81782 142.14 4.86877 142.129 4.9367L140.258 16.5983C140.116 17.4885 139.569 17.6753 139.134 17.6753C138.839 17.6753 138.615 17.5889 138.471 17.4205C138.306 17.2281 138.254 16.9365 138.316 16.5544L140.16 4.98057C140.174 4.89424 140.108 4.81641 140.02 4.81641H134.807C134.738 4.81641 134.678 4.86735 134.667 4.93529L132.789 16.7271C132.169 20.6076 134.109 22.8253 138.292 22.8253C142.475 22.8253 145.098 20.6076 145.718 16.7271L147.602 4.98057C147.617 4.89424 147.55 4.81641 147.462 4.81641H142.27L142.269 4.81782Z" fill="#FF319F"/>
<path d="M158.401 4.82422C158.323 4.82422 158.259 4.8879 158.259 4.96574L158.242 12.5557C158.242 12.5953 158.211 12.6264 158.172 12.6264H158.166C158.138 12.6264 158.112 12.6094 158.101 12.584L154.638 4.90772C154.615 4.85677 154.564 4.82422 154.509 4.82422H149.262C149.193 4.82422 149.133 4.87517 149.122 4.9431L146.35 22.4001C146.335 22.4864 146.402 22.5642 146.49 22.5642L151.676 22.5614C151.747 22.5614 151.806 22.5105 151.816 22.4397L153.233 12.6873C153.237 12.6519 153.267 12.625 153.303 12.625H153.367C153.394 12.625 153.42 12.6406 153.431 12.6646L158.214 22.485C158.238 22.5331 158.288 22.5642 158.341 22.5642H163.608C163.686 22.5642 163.75 22.5006 163.75 22.4227V4.96574C163.75 4.8879 163.686 4.82422 163.608 4.82422H158.402H158.401Z" fill="#FF319F"/>
</svg>
